<?xml version="1.0" encoding="UTF-8"?>
<svg xmlns="http://www.w3.org/2000/svg" width="108" height="129" viewBox="0 0 108 129" fill="none">
  <path d="M51.9182 83.7892C51.9182 83.7892 51.9929 83.8142 52.0178 83.8142C64.2177 87.0508 75.708 92.4368 85.9658 99.6598L89.9495 96.3732L89.8872 96.2983C94.9664 92.2119 99.0869 87.2383 102.124 81.6773C100.469 81.2025 98.7882 80.7776 97.0951 80.4152C81.9947 77.1286 66.2219 78.3407 51.9058 83.8017L51.9182 83.7892Z" fill="#00B058"></path>
  <path d="M97.3564 27.7673C86.8371 14.6084 70.8404 8.38518 55.2295 9.7348L57.9931 27.2299C64.952 26.88 71.774 28.8795 77.5129 33.0158C84.1606 37.802 88.58 44.8625 89.9742 52.9353C90.0489 53.3727 90.1236 53.8226 90.1734 54.2724L96.8709 63.6323C96.9705 63.7573 97.1074 63.8073 97.207 63.8323C97.3066 63.8448 97.456 63.8323 97.6054 63.7323L107.988 55.9595C107.527 45.7123 103.867 35.9025 97.3439 27.7548L97.3564 27.7673Z" fill="#00B058"></path>
  <path d="M64.2675 116.955C64.0932 116.855 63.9314 116.755 63.7571 116.668C63.5828 116.568 63.4085 116.468 63.2218 116.368C63.0475 116.268 62.8732 116.18 62.7114 116.08C62.5371 115.98 62.3504 115.88 62.1761 115.793C62.0018 115.705 61.8275 115.605 61.6532 115.518C61.479 115.418 61.2922 115.33 61.118 115.23C60.9437 115.143 60.7694 115.056 60.5951 114.968C60.4084 114.881 60.2341 114.781 60.0473 114.693C59.873 114.606 59.6988 114.518 59.5245 114.431C59.3378 114.343 59.151 114.256 58.9767 114.156C58.8025 114.068 58.6282 113.993 58.4539 113.906C58.2671 113.818 58.0804 113.731 57.9061 113.643C57.7318 113.556 57.5576 113.481 57.3708 113.406C57.1841 113.319 56.9974 113.244 56.8106 113.156C56.6363 113.081 56.4496 112.994 56.2753 112.919C56.0886 112.831 55.9019 112.756 55.7152 112.681C55.5409 112.606 55.3541 112.531 55.1798 112.456C54.9931 112.381 54.8064 112.294 54.6072 112.219C54.4329 112.144 54.2462 112.069 54.0719 112.006C53.8852 111.931 53.686 111.856 53.4992 111.781C53.3249 111.706 53.1382 111.644 52.9515 111.569C52.7648 111.494 52.5656 111.419 52.3788 111.357C52.1921 111.294 52.0178 111.219 51.8311 111.157C51.6319 111.082 51.4452 111.019 51.246 110.944C51.0593 110.882 50.885 110.819 50.6982 110.757C50.4991 110.694 50.3124 110.619 50.1132 110.557C49.9264 110.494 49.7522 110.432 49.5654 110.369C49.3662 110.307 49.1795 110.244 48.9803 110.182C48.7936 110.119 48.6069 110.069 48.4326 110.007C48.2334 109.944 48.0467 109.882 47.8475 109.819C47.6607 109.757 47.474 109.707 47.2873 109.657C47.0881 109.595 46.8889 109.545 46.6897 109.482C46.503 109.432 46.3163 109.37 46.1295 109.32C45.9428 109.27 45.7685 109.22 45.5818 109.17C45.5569 109.17 45.532 109.157 45.5071 109.145C45.3328 109.095 45.1585 109.045 44.9718 108.995C44.7726 108.945 44.5734 108.895 44.3742 108.832C44.2 108.782 44.0132 108.745 43.8389 108.695C43.6273 108.645 43.4032 108.582 43.1916 108.532C43.0048 108.495 42.8306 108.445 42.6439 108.407C42.4447 108.357 42.233 108.32 42.0338 108.27C41.9094 108.245 41.7849 108.22 41.6728 108.182C41.4238 108.132 41.1749 108.07 40.9259 108.02C40.901 108.02 40.8885 108.02 40.8636 108.007C40.6769 107.97 40.4902 107.933 40.3035 107.895C40.1043 107.858 39.8926 107.808 39.6935 107.77C39.6561 107.77 39.6063 107.758 39.569 107.745C39.2702 107.683 38.9714 107.633 38.6727 107.583C38.6229 107.583 38.5731 107.558 38.5108 107.558C38.3241 107.52 38.1374 107.495 37.9506 107.458C37.7888 107.433 37.6145 107.408 37.4527 107.37C37.0917 107.308 36.7431 107.258 36.3821 107.208C36.3074 107.208 36.2203 107.183 36.1456 107.17C35.9588 107.145 35.7721 107.12 35.5729 107.083C35.4857 107.083 35.3986 107.058 35.3239 107.045C35.2492 107.045 35.1621 107.02 35.0874 107.02V126.002C38.3366 127.165 41.6978 128.102 45.1336 128.789C50.1879 128.052 55.0553 125.79 62.1138 119.304L64.6783 117.192C64.5414 117.105 64.4044 117.03 64.2551 116.943L64.2675 116.955Z" fill="#00B058"></path>
  <path d="M51.2336 88.9753C51.1589 88.9503 51.0717 88.9378 50.9971 88.9128C49.5654 88.5254 48.1338 88.1755 46.6773 87.8506C46.5155 87.8131 46.3536 87.7756 46.1918 87.7381C45.7561 87.6382 45.3204 87.5507 44.8971 87.4632C44.7353 87.4257 44.561 87.4007 44.3991 87.3632C44.0008 87.2883 43.6024 87.2008 43.1916 87.1258C42.8181 87.0508 42.4323 86.9883 42.0588 86.9259C41.9094 86.9009 41.76 86.8759 41.6106 86.8509C41.2247 86.7884 40.8388 86.7259 40.4529 86.6634C40.2412 86.6259 40.0296 86.6009 39.8304 86.5635C39.1208 86.451 38.3988 86.351 37.6892 86.2635C37.5274 86.2385 37.378 86.2261 37.2162 86.2011C36.8676 86.1636 36.519 86.1136 36.1705 86.0761C35.909 86.0511 35.6476 86.0136 35.3862 85.9886C35.299 85.9886 35.2119 85.9761 35.1123 85.9636V101.784C35.4235 101.822 35.7348 101.859 36.0584 101.909C36.0833 101.909 36.1207 101.909 36.1456 101.909C36.2327 101.909 36.3074 101.934 36.3945 101.947C36.5439 101.972 36.7057 101.997 36.8551 102.009C37.017 102.034 37.1913 102.059 37.3531 102.084C37.3531 102.084 37.3531 102.084 37.3655 102.084C37.7764 102.147 38.1996 102.209 38.6104 102.284C38.7598 102.309 38.9092 102.334 39.0586 102.359C39.681 102.472 40.3035 102.584 40.9259 102.709C41.1127 102.746 41.2994 102.784 41.4737 102.821C42.0712 102.946 42.6688 103.071 43.2663 103.209C43.4655 103.259 43.6647 103.296 43.8638 103.346C44.4489 103.484 45.034 103.634 45.6191 103.784C45.8183 103.834 46.0175 103.884 46.2167 103.946C46.8018 104.096 47.3869 104.259 47.9595 104.421C48.1463 104.471 48.3454 104.533 48.5322 104.596C49.1173 104.771 49.7024 104.946 50.2875 105.133C50.4617 105.183 50.6236 105.246 50.7979 105.296C51.3332 105.471 51.8685 105.646 52.3913 105.833C52.5905 105.896 52.7772 105.971 52.9764 106.046C53.5117 106.233 54.0346 106.433 54.5699 106.633C54.7317 106.695 54.906 106.758 55.0803 106.82C55.6529 107.045 56.2256 107.27 56.7858 107.508C56.9725 107.583 57.1592 107.658 57.3335 107.733C57.8937 107.97 58.4415 108.207 59.0017 108.457C59.1884 108.545 59.3751 108.62 59.5619 108.707C60.1096 108.957 60.6573 109.22 61.2051 109.482C61.3794 109.57 61.5661 109.657 61.7404 109.745C62.2882 110.019 62.8483 110.294 63.3961 110.569C63.5579 110.657 63.7198 110.732 63.8692 110.819C64.4294 111.119 64.9896 111.419 65.5498 111.719C65.6742 111.781 65.7987 111.856 65.9232 111.931C66.4461 112.219 66.9689 112.519 67.4793 112.831C67.6038 112.906 67.7283 112.969 67.8403 113.044C68.2014 113.256 68.5624 113.481 68.9234 113.706L81.783 103.096C72.4837 96.7481 62.1637 91.9495 51.2211 88.9753H51.2336Z" fill="#00B058"></path>
  <path d="M100.966 68.281C99.8834 69.0808 98.6137 69.4932 97.319 69.4932C97.0078 69.4932 96.6841 69.4682 96.3604 69.4182C94.7296 69.1683 93.298 68.2935 92.327 66.9564L85.8038 57.8464C68.0891 56.8467 50.7229 60.4457 35.0996 68.2435V80.7651C35.5727 80.8151 36.0333 80.8525 36.5063 80.9025C36.5312 80.9025 36.5437 80.9025 36.5686 80.9025C37.1288 80.965 37.6765 81.0275 38.2367 81.1025C39.9173 81.3149 41.5979 81.5773 43.2785 81.8773C60.2339 73.617 79.6914 71.2927 98.1904 75.3291C100.282 75.779 102.336 76.3163 104.365 76.9286C106.095 72.7173 107.241 68.2435 107.751 63.5823C107.764 63.4449 107.776 63.2949 107.788 63.1575L100.954 68.281H100.966Z" fill="#00B058"></path>
  <path d="M40.3531 33.9031C40.5149 33.7406 40.6768 33.5907 40.8261 33.4782L16.277 0C9.85339 4.81116 4.5751 10.4346 0.155762 16.9078L24.3563 35.0153C27.6428 37.5396 30.0953 40.6762 31.8256 44.4127C33.8797 40.2638 36.8176 36.6898 40.3531 33.9031Z" fill="#FF7300"></path>
  <path d="M84.1604 52.5604C82.7786 46.5246 79.3054 41.251 74.2387 37.6146C68.7363 33.6532 62.0388 32.0911 55.3538 33.1908C48.6812 34.303 42.8302 37.952 38.8839 43.4754C34.9377 48.9989 33.3815 55.7345 34.477 62.4327C34.4895 62.5326 34.5144 62.6326 34.5268 62.7451C49.9261 55.4096 66.8565 51.8981 84.148 52.5729L84.1604 52.5604Z" fill="#FF7300"></path>
  <path d="M45.3452 30.629C47.6607 29.4418 50.138 28.5296 52.7398 27.9547L47.8101 3.16162L47.0507 3.32408C41.8969 4.49875 36.9298 6.41072 32.249 9.03499L45.3577 30.6165L45.3452 30.629Z" fill="#FF7300"></path>
</svg>
