<svg xmlns="http://www.w3.org/2000/svg" id="Layer_2" data-name="Layer 2" viewBox="0 0 456.19 174.59"><defs><style>      .cls-1 {        fill: #fff;        stroke-width: 0px;      }    </style></defs><g id="Layer_1-2" data-name="Layer 1"><g><path class="cls-1" d="m363.03,162.22v-25.91c-1.85.41-4.94,1.03-8.23,1.03-6.78,0-11.31-2.26-11.31-10.69v-38.25h19.95v-27.35h-19.95v-29.82h-27.96v13.16c0,9.46-5.14,16.65-15.84,16.65h-5.14v27.35h18.09v43.8c0,20.36,12.96,32.9,34.14,32.9,9.87,0,15.01-2.26,16.25-2.88"></path><path class="cls-1" d="m456.19,131.79c0-15.01-10.28-27.76-31.46-32.08l-13.57-2.67c-4.53-.82-8.02-3.29-8.02-7.61,0-5.34,5.14-8.84,11.1-8.84,9.46,0,13.78,5.76,14.6,12.54l25.91-4.73c-1.03-11.93-11.31-30.43-40.92-30.43-22.83,0-39.27,15.22-39.27,33.93,0,14.39,8.63,26.73,30.43,31.46l11.72,2.67c7.61,1.64,10.08,4.73,10.08,8.43,0,4.52-3.91,8.84-11.93,8.84-10.69,0-15.63-6.78-16.04-13.78l-26.52,4.73c.82,11.31,11.1,32.07,43.18,32.07,27.35,0,40.72-17.06,40.72-34.54"></path><path class="cls-1" d="m31.25,117.43c0-4.79.64-8.84,1.75-12.27,3.44-9.43,12.45-16.19,23.07-16.19,3.14,0,6.14.61,8.9,1.69v-30.47c-2.84-.89-5.86-1.36-8.99-1.36-10.93,0-20.48,5.84-25.76,14.55v-12.52H0v104.24h31.25v-47.67Z"></path><path class="cls-1" d="m186.05,60.86v64.71c0,21.8,13.98,39.89,38.86,39.89,9.14,0,19.41-2.94,25.33-9.8v9.61h31.83V60.86h-31.25v58.34c0,10.28-6.58,17.48-17.07,17.48-11.1,0-16.45-7.81-16.45-17.68v-58.13h-31.25Z"></path><path class="cls-1" d="m125.66,0c26.5,0,47.98,21.48,47.98,47.98v5.69l-12.01,8.06c-2.18,1.47-5.04,1.47-7.22,0l-12.01-8.06v-5.69c0-9.25-7.5-16.75-16.75-16.75s-16.74,7.5-16.74,16.75v12.83l-12.26-8.23c-2.04-1.37-4.69-1.37-6.73,0l-12.26,8.23v-12.83C77.68,21.48,99.16,0,125.66,0"></path><path class="cls-1" d="m161.41,73.72c-2.04,1.37-4.7,1.37-6.73,0l-12.26-8.24v53.68c0,10.28-6.58,17.48-17.07,17.48-11.1,0-16.45-7.81-16.45-17.68v-46.19l-12.01-8.07c-2.18-1.47-5.04-1.47-7.23,0l-12.02,8.07v52.77c0,21.8,13.98,39.89,38.86,39.89,9.14,0,19.41-2.94,25.34-9.8v9.43l12.58,8.45c2.19,1.47,5.05,1.47,7.23,0l12.01-8.07v-99.94l-12.26,8.24Z"></path></g></g></svg>