<svg xmlns="http://www.w3.org/2000/svg" viewBox="0 0 100 116" fill="none">
  <path fill-rule="evenodd" fill="#00B058" d="M50 6 C 70 22, 88 42, 88 66 C 88 92, 71 110, 50 110 C 29 110, 12 92, 12 66 C 12 42, 30 22, 50 6 Z M45 50 C 45 47, 47 46, 50 46 C 53 46, 55 47, 55 50 L55 92 C 55 95, 53 97, 50 97 C 47 97, 45 95, 45 92 Z M47 56 C 42 48, 35 42, 28 39 C 25 38, 23 40, 24 43 C 28 51, 37 58, 46 60 Z M53 56 C 58 48, 65 42, 72 39 C 75 38, 77 40, 76 43 C 72 51, 63 58, 54 60 Z"/>
  <circle cx="50" cy="35" r="8" fill="#FF7300"/>
</svg>
