<?xml version="1.0" encoding="utf-8"?>
<!-- Generator: Adobe Illustrator 25.4.1, SVG Export Plug-In . SVG Version: 6.00 Build 0)  -->
<svg version="1.1" id="Layer_1" xmlns="http://www.w3.org/2000/svg" xmlns:xlink="http://www.w3.org/1999/xlink" x="0px" y="0px"
	 viewBox="0 0 162.9 39" style="enable-background:new 0 0 162.9 39;" xml:space="preserve">
<style type="text/css">
	.st0{fill:#FFFFFF;}
</style>
<path class="st0" d="M33,26.1c-0.4,1-2,1.4-4.8,1.3c-2.6-0.2-5.9-0.9-9.2-2l13-13l-1.7-1.7c-3.3-3.3-8.6-3.2-11.8,0l-10,10
	c-1.1-0.6-2-1.2-2.9-1.9c-0.7-0.5-1.3-1-1.9-1.4c0.6,0.7,1.3,1.5,2,2.2C12,25.9,22.3,31,28.6,31C32.4,31,33.9,29,33,26.1z"/>
<path class="st0" d="M6.1,11.8c2.3,0.2,5,0.7,7.9,1.6l2.3-2.3C12.4,9.3,8.7,8.2,5.7,8.2c-3.9,0-5.4,1.9-4.5,4.9
	C1.7,12.1,3.3,11.6,6.1,11.8z M26.9,19.2l1.8,1.2c0.7,0.5,1.3,1,1.9,1.5c-0.6-0.7-1.3-1.5-2-2.2l-1-1C27.6,18.7,26.9,19.2,26.9,19.2
	z M2.3,26.9L4,28.6c3.3,3.3,8.6,3.2,11.8,0l0.1-0.1c-3.3-1.7-6.4-3.8-9.1-6.1C6.8,22.4,2.3,26.9,2.3,26.9z M44.3,19.5
	c0-6.4,4.9-11.3,11.4-11.3c3.4,0,6.4,1.4,8.5,3.8l-3.3,3.3c-1.3-1.5-3.1-2.3-5.2-2.3c-3.7,0-6.3,2.7-6.3,6.5c0,3.9,2.6,6.5,6.3,6.5
	c2.1,0,3.9-0.8,5.2-2.3l3.3,3.3c-2,2.4-5.1,3.8-8.5,3.8C49.2,30.8,44.3,25.8,44.3,19.5z M102.2,19.5c0-6.4,4.9-11.3,11.4-11.3
	c3.4,0,6.4,1.4,8.5,3.8l-3.3,3.3c-1.3-1.5-3.1-2.3-5.2-2.3c-3.7,0-6.3,2.7-6.3,6.5c0,3.9,2.6,6.5,6.3,6.5c2.1,0,3.9-0.8,5.2-2.3
	l3.3,3.3c-2,2.4-5.1,3.8-8.5,3.8C107.1,30.8,102.2,25.8,102.2,19.5z M76.5,8.2c-2.1,0.2-3.7,1.2-4.8,2.7V8.6h-5v21.8h5V18.2
	c0-3.7,2-5.4,4.8-5.4V8.2z M157.6,8.2c-2.1,0.2-3.7,1.2-4.8,2.7V8.6h-5v21.8h5V18.2c0-3.7,2-5.4,4.8-5.4V8.2z M77.9,19.4
	C77.9,13,82.9,8,89.2,8c6.1,0,10.4,4.6,10.4,10.9c0,0.7-0.1,1.5-0.3,2.4H83.1c0.7,3,3.1,4.8,6.4,4.8c2.2,0,4.2-0.8,5.6-2.3l3.2,3.2
	c-2.1,2.5-5.3,3.8-8.7,3.8C82.9,30.8,77.9,25.9,77.9,19.4z M83.1,17.2h11.7c-0.6-2.9-2.6-4.6-5.6-4.6C86,12.6,83.8,14.3,83.1,17.2z
	 M122.9,19.4c0-6.4,5-11.4,11.3-11.4c6.1,0,10.4,4.6,10.4,10.9c0,0.7-0.1,1.5-0.3,2.4H128c0.7,3,3.1,4.8,6.4,4.8
	c2.2,0,4.2-0.8,5.6-2.3l3.2,3.2c-2.1,2.5-5.3,3.8-8.7,3.8C127.9,30.8,122.9,25.9,122.9,19.4z M128.1,17.2h11.7
	c-0.6-2.9-2.6-4.6-5.6-4.6C131,12.6,128.8,14.3,128.1,17.2L128.1,17.2z M159.8,10.4V8.8h1.1c0.1,0,0.1,0.1,0.2,0.1
	c0,0.1,0.1,0.2,0.1,0.2c0,0.1,0,0.2-0.1,0.3s-0.2,0.1-0.3,0.1c0.1,0,0.1,0.1,0.2,0.1c0,0,0.1,0.1,0.2,0.3l0.2,0.3H161l-0.2-0.3
	c-0.1-0.1-0.1-0.2-0.2-0.2l-0.1-0.1h-0.3v0.6h-0.4V10.4z M160.1,9.5h0.5c0,0,0.1,0,0.1-0.1V9.2l-0.1-0.1h-0.4v0.4L160.1,9.5z"/>
<path class="st0" d="M160.4,11c-0.8,0-1.4-0.6-1.4-1.4c0-0.8,0.6-1.4,1.4-1.4c0.8,0,1.4,0.6,1.4,1.4C161.9,10.4,161.2,11,160.4,11z
	 M160.4,8.4c-0.6,0-1.2,0.5-1.2,1.2c0,0.6,0.5,1.2,1.2,1.2c0.6,0,1.2-0.5,1.2-1.2S161.1,8.4,160.4,8.4z"/>
</svg>
