<svg xmlns="http://www.w3.org/2000/svg" width="309" height="92" viewBox="0 0 309 92" fill="none"><g clip-path="url(#clip0_224_823)"><path d="M116.681 39.9238V14.4229H127.362V17.707H121.32V25.0241H126.081V28.3083H121.32V36.7118H127.434V39.9238H116.681Z" fill="#535353"></path><path d="M136.545 40.237C132.051 40.237 129.682 37.6532 129.465 32.4613L133.5 31.6161C133.597 34.9969 134.564 36.6872 136.4 36.6872C137.101 36.6872 137.633 36.47 137.971 36.0352C138.309 35.6006 138.479 35.021 138.479 34.2966C138.479 33.572 138.358 32.9442 138.092 32.3407C137.826 31.7611 137.536 31.278 137.198 30.8917C136.86 30.5295 136.376 30.0464 135.748 29.4911L132.389 26.5931C131.398 25.7239 130.673 24.8304 130.19 23.9127C129.706 22.9951 129.465 21.8359 129.465 20.4353C129.465 18.4552 130.045 16.9097 131.205 15.823C132.365 14.7363 133.96 14.1567 135.989 14.1567C136.932 14.1567 137.754 14.2533 138.479 14.4948C139.204 14.7363 139.784 15.0502 140.267 15.4608C140.726 15.8713 141.113 16.3784 141.427 16.9821C141.741 17.5858 141.983 18.2137 142.128 18.8657C142.273 19.5177 142.393 20.2422 142.442 21.0391L138.479 21.8117C138.479 21.3047 138.43 20.8459 138.382 20.4837C138.334 20.0973 138.261 19.7109 138.14 19.3245C138.02 18.9381 137.875 18.6242 137.705 18.3827C137.536 18.1412 137.295 17.9481 136.98 17.8032C136.666 17.6583 136.328 17.61 135.917 17.6341C135.24 17.6824 134.709 17.8998 134.346 18.3103C133.984 18.7208 133.79 19.2762 133.79 19.9765C133.79 20.7976 133.96 21.4737 134.274 22.005C134.588 22.5363 135.096 23.0916 135.796 23.6953L139.131 26.5931C139.687 27.1003 140.17 27.5834 140.581 28.0421C140.992 28.5252 141.379 29.0563 141.765 29.6601C142.128 30.2638 142.418 30.9399 142.611 31.6643C142.804 32.3889 142.901 33.1616 142.901 33.9827C142.901 35.8422 142.321 37.3392 141.137 38.4984C139.953 39.6576 138.43 40.237 136.521 40.237H136.545Z" fill="#535353"></path><path d="M152.495 40.2371C151.407 40.2371 150.416 40.0923 149.595 39.8266C148.749 39.5609 148.048 39.1746 147.517 38.6674C146.961 38.1845 146.526 37.5567 146.188 36.8321C145.849 36.1077 145.608 35.3109 145.463 34.4897C145.318 33.6445 145.245 32.7027 145.245 31.6643V22.7777C145.245 21.667 145.318 20.6768 145.463 19.8316C145.608 18.9864 145.849 18.1895 146.188 17.4409C146.526 16.7164 146.961 16.1127 147.517 15.6298C148.072 15.1468 148.749 14.7845 149.595 14.5189C150.441 14.2533 151.407 14.1084 152.519 14.1084C153.8 14.1084 154.887 14.2774 155.781 14.6155C156.675 14.9536 157.4 15.4607 157.932 16.1127C158.464 16.7647 158.826 17.5375 159.068 18.4068C159.309 19.2762 159.43 20.3146 159.43 21.4737V23.6471H154.96V21.4737C154.96 20.1938 154.887 19.3486 154.766 18.914C154.501 18.0446 153.848 17.5858 152.809 17.5375H152.567C152.181 17.5375 151.842 17.5858 151.552 17.6824C151.262 17.779 151.021 17.9239 150.827 18.117C150.634 18.3102 150.489 18.5276 150.392 18.7449C150.271 18.9622 150.199 19.2762 150.126 19.6384C150.078 20.0006 150.03 20.3387 150.03 20.6527C150.03 20.9666 150.03 21.353 150.03 21.8118V32.6061C150.03 34.1034 150.223 35.1659 150.586 35.7937C150.948 36.4216 151.625 36.7355 152.592 36.7355C152.93 36.7355 153.22 36.6873 153.461 36.6149C153.703 36.5423 153.92 36.4457 154.09 36.3251C154.259 36.2042 154.404 36.0353 154.525 35.8179C154.646 35.6007 154.742 35.3833 154.791 35.2141C154.863 35.0211 154.887 34.7554 154.936 34.4173C154.96 34.0793 154.984 33.7895 154.984 33.5479C154.984 33.3064 154.984 32.9925 154.984 32.582V30.3121H159.454V32.4129C159.454 33.3547 159.382 34.2241 159.261 34.9728C159.116 35.7213 158.899 36.4457 158.585 37.1219C158.27 37.798 157.835 38.3535 157.328 38.7883C156.82 39.2229 156.168 39.5851 155.346 39.8266C154.549 40.0681 153.606 40.2129 152.567 40.2129L152.495 40.2371Z" fill="#535353"></path><path d="M169.604 40.2369C168.468 40.2369 167.477 40.0919 166.631 39.8263C165.785 39.5608 165.109 39.1743 164.577 38.7155C164.045 38.2325 163.61 37.6046 163.296 36.8561C162.982 36.1076 162.74 35.2864 162.62 34.417C162.499 33.5478 162.426 32.5334 162.426 31.3744V14.4463H166.945V31.8573C166.945 32.461 166.945 32.9682 166.993 33.3787C167.018 33.7892 167.09 34.2481 167.187 34.7068C167.283 35.1658 167.428 35.528 167.622 35.8178C167.815 36.0834 168.081 36.3247 168.395 36.518C168.734 36.7113 169.12 36.7837 169.604 36.7837C170.087 36.7837 170.473 36.6872 170.812 36.518C171.15 36.3247 171.392 36.1076 171.585 35.8178C171.754 35.5521 171.899 35.1658 172.02 34.7068C172.117 34.2481 172.189 33.8133 172.213 33.4028C172.238 32.9924 172.262 32.4852 172.262 31.8814V14.4704H176.781V31.3986C176.781 32.5578 176.708 33.572 176.587 34.4412C176.466 35.3106 176.225 36.1317 175.911 36.8802C175.597 37.629 175.162 38.2566 174.63 38.7397C174.098 39.2227 173.422 39.5849 172.576 39.8506C171.73 40.1161 170.763 40.2611 169.628 40.2611L169.604 40.2369Z" fill="#535353"></path><path d="M180.381 39.9238V14.4229H191.063V17.707H185.021V25.0241H189.782V28.3083H185.021V36.7118H191.135V39.9238H180.381Z" fill="#535353"></path><path d="M193.793 39.9238V14.4229H198.433V36.7118H204.547V39.9238H193.793Z" fill="#535353"></path><path d="M205.707 39.9238L210.903 14.4229H215.76L220.931 39.9238H216.606L215.567 34.0073H211.144L210.105 39.9238H205.731H205.707ZM211.628 30.9886H215.035L213.319 20.5083L211.603 30.9886H211.628Z" fill="#535353"></path><path d="M229.704 39.9227V27.1724H232.676C233.45 27.1724 234.079 27.2448 234.611 27.4137C235.116 27.5587 235.553 27.8002 235.866 28.1383C236.181 28.4764 236.397 28.8868 236.543 29.3699C236.664 29.8528 236.736 30.4565 236.736 31.1567V35.7451C236.736 36.4695 236.664 37.0973 236.543 37.6043C236.397 38.1115 236.181 38.5461 235.891 38.8844C235.576 39.2466 235.191 39.4879 234.682 39.6571C234.174 39.826 233.546 39.8986 232.822 39.8986H229.752L229.704 39.9227ZM232.024 38.3048H232.676C232.919 38.3048 233.112 38.3048 233.281 38.2322C233.45 38.1839 233.594 38.1357 233.715 38.0874C233.836 38.0391 233.933 37.9426 234.005 37.8217C234.079 37.7011 234.151 37.5802 234.174 37.4595C234.223 37.363 234.246 37.1939 234.272 36.9765C234.272 36.7593 234.295 36.566 234.321 36.4212C234.321 36.2762 234.321 36.0349 234.321 35.7451V31.0844C234.321 30.7704 234.321 30.5289 234.321 30.36C234.321 30.1667 234.295 29.9975 234.246 29.8045C234.2 29.6112 234.151 29.4664 234.079 29.3699C234.005 29.2732 233.91 29.1766 233.789 29.0801C233.666 28.9834 233.522 28.9351 233.33 28.911C233.135 28.8868 232.919 28.8627 232.652 28.8627H232.024V38.3289V38.3048Z" fill="#535353"></path><path d="M238.429 39.9227V27.1724H243.768V28.8144H240.749V32.4849H243.141V34.1271H240.749V38.3289H243.793V39.9469H238.404L238.429 39.9227Z" fill="#535353"></path><path d="M116.681 76.2669V51.104H122.456C123.785 51.104 124.921 51.2249 125.864 51.4421C126.806 51.6595 127.652 52.0217 128.353 52.5289C129.054 53.0359 129.585 53.7363 129.924 54.6055C130.262 55.4749 130.455 56.5617 130.455 57.8172C130.455 59.3869 130.213 60.6911 129.754 61.6812C129.295 62.6712 128.498 63.4198 127.41 63.8787L130.914 76.291H126.323L123.326 64.7964H121.296V76.291H116.705L116.681 76.2669ZM121.272 61.8501H122.384C123.737 61.8501 124.704 61.5603 125.284 60.9807C125.864 60.4013 126.154 59.4113 126.154 58.0105C126.154 56.61 125.912 55.6923 125.405 55.1127C124.897 54.5331 124.003 54.2433 122.674 54.2433H121.296V61.826L121.272 61.8501Z" fill="#535353"></path><path d="M133.935 76.2669V51.104H144.471V54.3401H138.527V61.5603H143.239V64.7964H138.527V73.1034H144.568V76.2669H133.959H133.935Z" fill="#535353"></path><path d="M153.51 76.6042C151.117 76.6042 149.426 75.8555 148.362 74.3826C147.323 72.8853 146.792 70.736 146.792 67.8865V59.7001C146.792 58.2513 146.912 56.9956 147.13 55.9571C147.347 54.9187 147.734 54.0011 148.266 53.2043C148.797 52.4073 149.546 51.8277 150.489 51.4172C151.431 51.0309 152.591 50.8135 153.945 50.8135C156.434 50.8135 158.222 51.4172 159.309 52.6488C160.397 53.8804 160.929 55.7157 160.929 58.2031V59.4345H156.53V58.1305C156.53 57.5752 156.53 57.1163 156.482 56.7541C156.458 56.3919 156.385 56.0538 156.289 55.6916C156.192 55.3294 156.047 55.0637 155.878 54.8705C155.684 54.6772 155.443 54.5324 155.129 54.4117C154.815 54.2909 154.428 54.2185 153.969 54.2185C153.63 54.2185 153.316 54.2667 153.05 54.3391C152.785 54.4359 152.567 54.5324 152.374 54.6531C152.181 54.7739 152.036 54.967 151.915 55.1844C151.794 55.4259 151.697 55.6431 151.625 55.8605C151.552 56.0779 151.504 56.3677 151.48 56.7058C151.456 57.0439 151.431 57.3578 151.407 57.6235C151.407 57.8891 151.407 58.2272 151.407 58.6377V68.8042C151.407 70.3256 151.601 71.4363 151.963 72.1368C152.35 72.837 153.05 73.1992 154.114 73.1992C154.67 73.1992 155.129 73.1027 155.491 72.8853C155.854 72.6679 156.144 72.354 156.361 71.9435C156.579 71.533 156.724 71.05 156.796 70.4945C156.893 69.9634 156.917 69.2872 156.917 68.5385V66.4618H154.186V63.4914H161.049V76.2662H158.077L157.739 73.7062C156.99 75.6383 155.564 76.5801 153.461 76.5801L153.51 76.6042Z" fill="#535353"></path><path d="M164.553 76.2669V51.104H175.09V54.3401H169.145V61.5603H173.857V64.7964H169.145V73.1034H175.186V76.2669H164.578H164.553Z" fill="#535353"></path><path d="M177.796 76.2669V51.104H180.962L187.124 65.3516V51.104H190.918V76.2669H187.921L181.687 61.2705V76.2669H177.796Z" fill="#535353"></path><path d="M194.711 76.2669V51.104H205.248V54.3401H199.303V61.5603H204.015V64.7964H199.303V73.1034H205.344V76.2669H194.736H194.711Z" fill="#535353"></path><path d="M207.956 76.2669V51.104H213.731C215.06 51.104 216.196 51.2249 217.139 51.4421C218.081 51.6595 218.926 52.0217 219.627 52.5289C220.328 53.0359 220.859 53.7363 221.198 54.6055C221.537 55.4749 221.729 56.5617 221.729 57.8172C221.729 59.3869 221.488 60.6911 221.029 61.6812C220.569 62.6712 219.773 63.4198 218.685 63.8787L222.189 76.291H217.598L214.601 64.7964H212.571V76.291H207.98L207.956 76.2669ZM212.547 61.8501H213.659C215.012 61.8501 215.979 61.5603 216.559 60.9807C217.139 60.4013 217.429 59.4113 217.429 58.0105C217.429 56.61 217.187 55.6923 216.679 55.1127C216.172 54.5331 215.278 54.2433 213.949 54.2433H212.571V61.826L212.547 61.8501Z" fill="#535353"></path><path d="M223.929 76.2669L229.052 51.104H233.836L238.935 76.2669H234.657L233.643 70.4228H229.293L228.253 76.2669H223.929ZM229.776 67.4285H233.16L231.469 57.0929L229.776 67.4285Z" fill="#535353"></path><path d="M248.167 76.5804C247.079 76.5804 246.137 76.4354 245.29 76.17C244.468 75.9043 243.768 75.518 243.236 75.0349C242.705 74.5518 242.246 73.9483 241.907 73.2237C241.568 72.4993 241.327 71.7267 241.183 70.9055C241.037 70.0844 240.988 69.1426 240.988 68.1284V59.3626C240.988 58.2758 241.062 57.3099 241.206 56.4646C241.352 55.6196 241.594 54.8467 241.932 54.1223C242.269 53.3979 242.705 52.7942 243.236 52.3352C243.768 51.8765 244.468 51.5143 245.29 51.2486C246.113 50.983 247.079 50.8623 248.167 50.8623C249.422 50.8623 250.487 51.0312 251.38 51.3693C252.275 51.7074 252.976 52.1904 253.482 52.8424C253.99 53.4944 254.378 54.243 254.619 55.1124C254.86 55.9818 254.958 56.996 254.958 58.131V60.2801H250.535V58.131C250.535 56.8753 250.461 56.03 250.341 55.5954C250.076 54.7502 249.422 54.2914 248.408 54.2188H248.167C247.779 54.2188 247.441 54.2673 247.15 54.3638C246.86 54.4604 246.619 54.6054 246.45 54.7984C246.257 54.9917 246.111 55.2089 246.016 55.4263C245.895 55.6437 245.823 55.9335 245.775 56.2957C245.726 56.6579 245.677 56.996 245.677 57.2858C245.677 57.5997 245.677 57.986 245.677 58.445V69.0943C245.677 70.5674 245.87 71.6299 246.234 72.2578C246.596 72.8856 247.271 73.1996 248.215 73.1996C248.529 73.1996 248.819 73.1513 249.085 73.0789C249.327 73.0065 249.545 72.9098 249.712 72.7891C249.881 72.6684 250.027 72.4993 250.148 72.2819C250.269 72.0647 250.341 71.8714 250.415 71.6782C250.487 71.4851 250.51 71.2195 250.559 70.9055C250.607 70.5916 250.607 70.2776 250.607 70.0602C250.607 69.8189 250.607 69.505 250.607 69.0943V66.8485H255.03V68.9254C255.03 69.8672 254.958 70.7122 254.837 71.461C254.716 72.2095 254.473 72.9098 254.159 73.5618C253.846 74.2138 253.433 74.7692 252.927 75.204C252.419 75.6386 251.767 75.9767 250.993 76.2182C250.197 76.4598 249.278 76.5804 248.239 76.5804H248.167Z" fill="#535353"></path><path d="M258.292 76.2669V51.104H262.811V76.2669H258.292Z" fill="#535353"></path><path d="M273.54 76.58C270.955 76.58 269.094 75.8797 267.957 74.4792C266.823 73.0784 266.266 71.0018 266.266 68.297V58.9999C266.266 57.6718 266.387 56.5126 266.653 55.5225C266.895 54.5325 267.305 53.6872 267.886 52.9628C268.442 52.2384 269.192 51.7071 270.134 51.3449C271.076 50.9827 272.212 50.8136 273.54 50.8136C276.127 50.8136 277.987 51.5138 279.099 52.8904C280.235 54.2668 280.79 56.3193 280.79 58.9999V68.297C280.79 69.601 280.669 70.7602 280.405 71.7744C280.138 72.7645 279.727 73.6339 279.171 74.3826C278.616 75.107 277.867 75.6625 276.925 76.0488C275.98 76.4352 274.846 76.6041 273.54 76.6041V76.58ZM272.38 72.9819C272.695 73.1026 273.082 73.1752 273.516 73.1752C273.95 73.1752 274.338 73.1026 274.653 72.9819C274.966 72.8612 275.208 72.668 275.4 72.4747C275.595 72.2575 275.739 71.9918 275.836 71.6296C275.934 71.2916 276.006 70.9535 276.055 70.5911C276.078 70.253 276.103 69.8426 276.103 69.3597V57.9375C276.103 57.3337 276.078 56.8265 276.006 56.4161C275.934 56.0054 275.837 55.6191 275.644 55.281C275.475 54.9188 275.208 54.6531 274.846 54.4842C274.484 54.3151 274.048 54.2185 273.493 54.2185C272.936 54.2185 272.502 54.3151 272.138 54.4842C271.776 54.6531 271.512 54.9188 271.342 55.281C271.173 55.6432 271.052 56.0297 271.004 56.4161C270.932 56.8265 270.906 57.3337 270.906 57.9375V69.3597C270.906 69.8426 270.906 70.253 270.955 70.5911C270.978 70.9294 271.052 71.2916 271.173 71.6296C271.268 71.9677 271.414 72.2575 271.607 72.4747C271.8 72.6921 272.043 72.8612 272.356 72.9819H272.38ZM272.333 48.9541L274.194 42.748H278.495L274.748 48.9541H272.333Z" fill="#535353"></path><path d="M284.149 76.2669V51.104H287.314L293.478 65.3516V51.104H297.272V76.2669H294.274L288.04 61.2705V76.2669H284.149Z" fill="#535353"></path><path d="M65.569 68.612C65.5933 68.926 65.6175 69.2399 65.6175 69.5538C65.6175 76.1464 60.2768 81.5074 53.6795 81.5074C47.1064 81.5074 41.7416 76.1464 41.7173 69.5779C41.7173 66.3904 42.9741 63.4926 45.0281 61.3433L50.7796 55.5477L44.0374 48.8345L38.2376 54.6301C34.4676 58.5179 32.1719 63.7824 32.1719 69.6021C32.1719 81.4591 41.8382 91.0702 53.6795 91.0702C64.9407 91.0702 74.172 82.3768 75.0903 71.365C71.7314 71.0752 68.5174 70.1576 65.569 68.612Z" fill="#C1752F"></path><path d="M53.5347 0.826882C42.2736 0.826882 33.0423 9.52035 32.124 20.5321C35.4587 20.8218 38.6971 21.7636 41.6453 23.285C41.6212 22.971 41.5968 22.6571 41.5968 22.319C41.5968 15.7265 46.9375 10.3655 53.5347 10.3655C60.1078 10.3655 65.4726 15.7265 65.497 22.2949C65.497 25.3618 64.3369 28.1631 62.4521 30.2639L56.459 36.2769L63.2254 43.0142L69.3152 36.9047C72.8917 33.0651 75.0907 27.9215 75.0665 22.2708C75.0665 10.4138 65.4002 0.802734 53.5591 0.802734L53.5347 0.826882Z" fill="#009A9D"></path><path d="M61.5095 22.3194C61.5095 17.9727 57.9571 14.4229 53.6072 14.4229C49.2574 14.4229 45.7051 17.9727 45.7051 22.3435C45.7051 24.2513 46.4058 26.1107 47.6867 27.5354L53.6556 33.5001L54.9122 32.2202L59.4311 27.7045C60.8086 26.2314 61.5577 24.3237 61.5577 22.3194H61.5095Z" fill="#227F7D"></path><path d="M79.0536 24.4199C78.7636 27.7764 77.8453 30.9882 76.2987 33.9344C76.6129 33.9103 76.927 33.8862 77.2412 33.8862C83.8384 33.8862 89.1791 39.2469 89.2034 45.8154C89.2034 52.408 83.8627 57.769 77.2655 57.769C74.0756 57.769 71.1757 56.5132 69.0249 54.4605L44.9074 30.5053C41.0409 26.7622 35.7485 24.4441 29.9487 24.4441C18.0834 24.4441 8.44121 34.1034 8.46538 45.9604C8.46538 57.2135 17.1651 66.4382 28.1847 67.3559C28.4747 63.9994 29.4171 60.7874 30.9396 57.8414C30.6254 57.8655 30.3113 57.8896 29.9972 57.8896C23.3999 57.8896 18.0592 52.5286 18.035 45.9604C18.035 39.3678 23.3757 34.0068 29.973 34.0068C33.1627 34.0068 36.0626 35.2626 38.2134 37.3151L62.3309 61.2705C66.1974 65.0135 71.4898 67.3317 77.2896 67.3317C89.1549 67.3317 98.7971 57.6724 98.7729 45.8154C98.7729 34.5623 90.0732 25.3376 79.0536 24.4199Z" fill="#B2B64E"></path><path d="M77.2901 38.0156C75.3809 38.0156 73.5202 38.7159 72.0944 39.996L66.1255 45.9605L67.4062 47.2162L71.9251 51.7321C73.3993 53.0844 75.3085 53.857 77.2901 53.857C81.6399 53.857 85.1922 50.3073 85.1922 45.9363C85.1922 41.5898 81.6399 38.0398 77.2901 38.0398V38.0156Z" fill="#828142"></path><path d="M41.1618 45.9603L35.3861 40.2372C33.9121 38.8364 31.9788 38.0879 29.973 38.0879C25.6232 38.0879 22.0708 41.6377 22.0708 46.0086C22.0708 50.3554 25.6232 53.9052 29.973 53.9052C32.027 53.9052 33.9845 53.1082 35.4587 51.6594L41.1376 45.9845L41.1618 45.9603Z" fill="#818041"></path><path d="M45.7534 69.6021C45.7534 73.9489 49.306 77.4987 53.6557 77.4987C58.0055 77.4987 61.558 73.9489 61.558 69.578C61.558 67.5252 60.7604 65.5692 59.3105 64.0963L53.6316 58.4214L47.9042 64.1928C46.5026 65.666 45.7534 67.5978 45.7534 69.6262V69.6021Z" fill="#80653E"></path></g><defs><clipPath id="clip0_224_823"><rect width="307.423" height="91.0256" fill="white" transform="translate(0.929688 0.487305)"></rect></clipPath></defs></svg>