<?xml version="1.0" encoding="UTF-8"?><svg id="Layer_1" xmlns="http://www.w3.org/2000/svg" viewBox="0 0 113.25 30.05"><defs><style>.cls-1{fill:#ff8300;}</style></defs><path class="cls-1" d="m113.19,21.21v-1.36h-.33c-.17.32-.43.85-.5,1.03-.05-.18-.3-.72-.45-1.07h-.35s0,1.36,0,1.36h.23v-1.07c.15.4.31.75.46,1.08h.15c.17-.32.34-.67.49-1.04v1.07h.3Zm-.18-10.1c.39-2.32-.97-3.76-3.04-4.29l-1.03-.27-3.07-.8-2,10.84,2.73.72.77-4.17h.03l1.53,4.07.3.77,3.4.89-2.5-5.29c1.55.12,2.61-.98,2.88-2.47h0Zm-2.88-.58c-.14.77-.63,1-1.2,1-.31,0-.65-.05-.95-.14l-.27-.08.5-2.69.26.06c.15.04.31.09.46.14.73.26,1.38.73,1.2,1.7h0Zm-6.55-2.78l.44-2.38-6.1-.99-1.99,10.84,6.1.99.44-2.38-3.31-.54.35-1.88,3.13.52.44-2.38-3.14-.51.33-1.82,3.31.54h0Zm-9.73,7.32l2-10.84-2.89.03-.76,4.17h-4.14s.76-4.16.76-4.16h-2.87s-2,10.85-2,10.85h2.87s.83-4.47.83-4.47h4.15s-.83,4.43-.83,4.43h2.88Zm-16.76-3.02l2.38-.28c-.35,1.27-1.43,2.02-2.71,2.17-1.93.22-2.66-1.36-2.35-3.05.3-1.65,1.62-3.54,3.56-3.77,1.17-.14,1.91.45,2.13,1.44l2.99-1.47c-.61-1.91-2.22-2.69-4.54-2.42-3.65.44-6.55,3.05-7.21,6.58-.62,3.4,1.43,5.43,4.98,5.01,1.9-.23,3.66-1.08,5.05-2.69,1.24-1.48,1.61-2.84,1.93-4.43l-5.82.71-.41,2.2h0Zm-9.77,5.3l3.18-.66-2.35-9.96-2.89.59-.36.06-6.41,11.75,3.17-.64,1.14-2.05,2.46-.5,1.65-.33.4,1.74h0Zm-.81-3.73l-1.24.26-1.24.24,1.24-2.46.62-1.25h.04l.58,3.2h0Zm-8.83,3.4l-3.53.48,1.56-8.44-2.94.4-2,10.84,6.47-.89.44-2.38h0Zm-7.89,1.09l-3.48.23,1.55-8.44-2.9.21-2,10.84,6.39-.44.44-2.39h0Zm-11.05,2.87h3.07s-2.18-10.84-2.18-10.84h-2.82s-.3.03-.3.03l-6.24,10.85h3.04s1.11-1.9,1.11-1.9h2.38s1.56-.01,1.56-.01l.37,1.88h0Zm-.73-4.03h-2.39s1.19-2.27,1.19-2.27l.63-1.18h.03l.54,3.45h0Zm-13.85.03h2.53c-.35,1.33-1.33,2.09-2.53,2.28-.19.03-.41.04-.62.04-.79,0-1.39-.27-1.84-.69-.57-.55-.88-1.38-.93-2.28-.01-.19-.01-.39,0-.58.01-.22.04-.44.08-.66.13-.75.43-1.51.85-2.18.59-.93,1.43-1.67,2.46-1.94.27-.06.55-.1.85-.1.89.01,1.56.39,1.98,1,.22.32.36.72.45,1.16l.32-.13.15-.06,1.43-.57.86-.35.7-.27c-.17-.6-.4-1.15-.7-1.61-.25-.39-.53-.71-.86-.99-.41-.35-.89-.62-1.43-.82-.05-.01-.1-.03-.15-.05-.24-.08-.5-.14-.77-.19-.41-.08-.84-.12-1.3-.12-.51,0-1.03.04-1.53.13-.88.14-1.7.43-2.46.82-.32.17-.63.36-.93.58-.08.05-.15.1-.23.15-.43.33-.84.72-1.2,1.14-.46.54-.86,1.15-1.2,1.81-.36.73-.63,1.54-.8,2.41-.01.04-.03.09-.03.13-.21,1.12-.18,2.14.03,3.04.15.68.43,1.3.8,1.83.32.46.74.87,1.2,1.2.36.26.76.46,1.2.63.08.03.15.05.23.08.3.1.61.18.93.23.41.08.85.12,1.3.12.4,0,.79-.03,1.16-.06.99-.14,1.95-.45,2.84-.98.26-.15.52-.33.77-.53.05-.04.1-.08.15-.13.34-.26.65-.57.95-.9.17-.21.32-.4.48-.61.36-.49.63-.98.86-1.48.46-1,.71-2.06.94-3.22h-3.24s-.15-.01-.15-.01h-.77l-2.58-.03-.26,1.42-.23,1.34h.23Zm14.58-7.59h.35c-.06-.22-.46-1.42-.63-1.42-.12,0-.57.33-.84.36l.23-1.44c-.09-.23-.28-.51-.44-.77-.06-.1-.43-.77-.59-.77-.12,0-.44.31-.61.4v-.75c-.07-.22.01-.48-.09-.62-.27-.4-.97-1.04-1.2-1.17-.03-.03-.05-.03-.07-.03-.12,0-.4.35-.55.51-.12-.41-.1-.95-.36-1.27-.21-.26-.63-.52-.98-.7-.26-.13-.47-.21-.52-.21-.19,0-.41.52-.5.63-.14-.27-.25-.58-.41-.85-.08-.13-.18-.26-.3-.35-.25-.18-.67-.32-1.02-.4-.26-.06-.46-.1-.52-.1-.15,0-.27.22-.35.41-.05.14-.09.27-.1.3-.3-.3-.52-.81-.92-.97-.13-.05-.27-.08-.41-.1-.05-.01-.1-.03-.15-.03-.26-.03-.51-.03-.77-.04-.14,0-.28-.01-.43-.03-.1.28-.14.55-.22.81-.39-.27-1.09-.81-1.21-.81-.08,0-.53.06-.98.12-.26.03-.52.06-.71.08-.05.04-.09.09-.09.09-.01.27-.01.54,0,.75l-1.3-.54c-.08.04-.21.08-.36.13-.28.09-.64.21-.93.32-.09.03-.15.06-.23.09-.15.08-.26.14-.26.18,0,.1.13.42.18.59-.04.04-.21.03-.21.03-.25-.05-.66-.12-.91-.15-.09,0-.17-.01-.21-.01-.12,0-.09,0-.14.01-.26.17-.57.32-.85.46-.41.21-.76.37-.76.5,0,.12.18.44.31.59-.09.01-.18.01-.35.03-.13,0-.31.01-.57.05-.18.01-.4-.03-.54.06-.18.1-.4.26-.62.44-.43.33-.83.71-.83.79,0,.09.31.37.44.54-.39.13-.84.12-1.21.27-.09.03-.17.08-.25.13-.4.28-.92.96-1.12,1.31-.05.09-.09.17-.09.18,0,.04.04.09.09.15.12.12.32.28.45.36-.14.1-.3.17-.45.23-.52.19-1.06.3-1.24.95l-.66-.33-1.66-.82-.61-.3-.08-.04-2.49-1.22c-.31.13-.66.23-.89.37-.23.14-.27.44-.4.59-.06-.04-.17-.09-.26-.13-.09-.05-.18-.08-.23-.08-.12,0-.76.41-.97.71-.17.22-.15.54-.23.8h-.12c-.17-.09-.4-.22-.51-.22-.22,0-.65.94-.66.99-.07.4-.14.81-.27,1.2-.12,0-.26-.05-.35-.04-.15.15-.5.77-.5,1.16,0,.12.09.88.09.99,0,.1.01.15-.03.19-.17-.04-.4-.04-.59.01v1.36c0,.09.22.51.22.62,0,.12-.22.54-.22.64v1.4c.09.1.19.1.31.1s.23-.05.32-.01c-.05.53-.1.97-.1,1.07,0,.3.37.95.49,1.2.15.01.28-.03.36-.04.13.4.21.8.27,1.2.01.05.48.99.71.99.12,0,.41-.13.58-.17.08.24.15.52.22.77.04.13.79.73,1.01.73.05,0,.13-.03.21-.06.12-.04.26-.12.35-.17.01.62.79.8,1.21.95l2.48-1.2.08-.04.61-.3.9-.44c.08.21.08.49.22.66.14.17.33.28.54.39.23.13.46.23.64.36-.06.03-.62.27-.62.43,0,.12.45,1.14.89,1.51.27.22.65.26.98.32.12.03.22.04.31.06-.08.08-.21.18-.31.28-.12.1-.22.22-.22.27,0,.04.09.17.22.32.24.3.64.71.95.91.12.08.27.06.41.06h.09c.57.06.74.04.9.08-.13.15-.44.48-.44.59,0,.1.59.48,1.04.73.26.14.46.23.52.23.1,0,1.06-.17,1.21-.18h.01c.12,0,.08.04.08.04-.03.05-.06.1-.09.17-.09.14-.18.33-.18.4,0,.12.05.15.1.18.03.01.05.03.08.04.23.09.53.19.8.3.36.13.67.23.72.23.06,0,.25-.06.48-.15.27-.1.58-.22.8-.3.1.24-.09.37-.09.55,0,.12.07.15.1.19.12.01.25.03.39.04.08.01.15.03.23.03.36.05.75.1.93.12.05.01.09.01.12.01.31,0,1.16-.63,1.33-.72.12.42-.18.72.27.72.06,0,.39,0,.75-.04.31-.03.64-.08.88-.17.43-.17.76-.66,1.1-.97.06.17-.01.72.34.72.05,0,.26-.04.53-.1.23-.05.53-.14.77-.23.05-.03.1-.05.15-.08.08-.03.13-.06.19-.1.44-.28.68-.79.92-1.12.07.08.12.45.32.54.03.03.06.03.1.03.07,0,.4-.12.76-.3.3-.15.61-.35.79-.53.25-.27.39-.62.53-.93.08-.15.14-.3.23-.43.12.17.36.53.46.53.05,0,.39-.21.74-.46.31-.23.63-.52.8-.75.25-.33.21-.81.27-1.18.17.15.49.48.61.48.04,0,.14-.09.28-.23.33-.35.84-.99.95-1.25.07-.21.01-.45.07-.67v-1.53c-.34-.18-.68-.36-1.02-.52-.18-.09-.36-.17-.54-.24-.36.39-.44,1.43-1.17,1.16.5.41,1.17.89,1.71,1.35.19.17.37.33.52.49-.19.21-.36.41-.52.63-.12.14-.21.28-.31.41l-1.65-1.54-1.37-1.3h-1.82c-.15.14-.3.28-.43.41-.14.14-.26.26-.37.33-.3.21-.66.4-1.06.59-.05.03-.1.05-.15.08-.26.12-.51.23-.77.33-.54.22-1.1.4-1.62.55-.31.08-.8.14-1.21.18-.36.03-.67.05-.72.05-.09,0-1.11-.05-1.74-.17-.05-.01-.1-.03-.14-.03-.26-.06-.53-.13-.79-.22-.08-.01-.15-.04-.23-.06-.26-.09-.53-.18-.77-.27-.13-.05-.27-.12-.43-.19-.39-.19-.8-.48-1.2-.81-.28-.22-.55-.48-.8-.73-.45-.48-.81-.97-1.01-1.42-.1-.23-.31-.43-.43-.67-.1-.23-.21-.48-.3-.72-.1-.31-.21-.62-.28-.93-.12-.48-.08-.97-.12-1.47,0-.13-.12-.25-.12-.35,0-.12.12-1.53.28-2.28.06-.27.14-.55.23-.84.12-.36.26-.72.39-1.07.17-.43.49-.85.73-1.25.1-.17.15-.39.25-.48.12-.14.25-.28.36-.42.26-.31.51-.62.8-.91.12-.12.22-.23.34-.35.27-.26.59-.45.86-.66.06-.04.12-.08.17-.13.18-.15.35-.32.53-.41.17-.09.34-.18.5-.28.08-.04.15-.08.23-.12.3-.17.61-.33.93-.46.03-.01.05-.03.09-.03.58-.22,1.26-.44,1.91-.58.13-.03.3-.05.47-.08.59-.06,1.3-.06,1.39-.06.1,0,.85.04,1.44.12.14.03.27.05.39.08.13.03.26.05.39.09.05.01.1.03.15.04.43.12.83.26,1.19.49.08.04.17.09.25.14.27.17.57.35.86.55.45.31.92.67,1.31,1.11.14.15.28.31.41.49.39.51.72,1.08,1.02,1.63.03.06.06.13.09.18.27.54.43,1.21.7,1.8.66.14.88-.54,1.17-1.13.09-.21.21-.4.33-.55l-.33.14-1.24.48c-.08-.21-.17-.48-.26-.68l1.5-.71,3.42-1.63c.17.3.26.61.4.93h0Zm-8.52,14.17l-.76-1.06c.18-.19.41-.37.65-.55l.12.13,1.31,1.48,1.43,1.6.37.42-.37.32-.67.55-.76-1.06-1.31-1.84h0Zm-2.3.64l-.15-.4-.04-.09v-.14s.03-.01.04-.03c.05-.03.1-.06.15-.09.18-.1.37-.21.54-.3l.89,1.72.86,1.67.49.95-.49.26-.7.36-.17-.42-1.43-3.5h0Zm-2.16.08c.23-.09.5-.14.84-.23l.4,1.56.77,3.08.04.15h-.04s-.77.25-.77.25l-.43.13-.81-4.93h0Zm-2.27,5.42l.27-5.16h.79l.23,5.02c-.21.03-.41.05-.62.08-.22.02-.45.04-.67.06h0Zm-3.03-.14l.08-.32.23-.85.93-3.53.1-.36h.68c.05.04.06.09.06.14l-.85,5.02v.04c-.31-.03-.62-.06-.93-.1-.08-.01-.15-.01-.23-.03-.03,0-.05-.01-.08-.01h0Zm-2.9-.81l.58-1.18,1.2-2.44.59-1.2.61.19.09.04-.09.22-1.2,3.18-.59,1.57c-.22-.07-.41-.13-.61-.19-.21-.06-.39-.13-.58-.18h0Zm-2.55-1.33l.61-.81,1.73-2.28.8-1.07.14-.19c.19.09.41.22.61.37l-.75,1.18-.8,1.27-1.32,2.07c-.13-.06-.27-.13-.41-.21-.21-.12-.41-.23-.61-.35h0Zm-.99-2.99l1.6-1.48,1.25-1.15c.17.13.32.27.48.44.03.03.05.05.08.08l-.08.08-1.73,1.84-1.6,1.71-.31.32c-.28-.23-.55-.5-.84-.78l1.15-1.06h0Zm-1.37-2.19l1.37-.85,1.6-.99.18-.1c.18.07.27.39.43.57l-.61.44-1.6,1.2-1.37,1-.79.59c-.25-.28-.47-.64-.65-.98l1.43-.87h0Zm-2.32-1.22c.14-.08.28-.14.43-.22.61-.31,1.25-.59,1.9-.98.35-.21.7-.45,1.04-.76.09-.08.21-.14.32-.19.33-.15.75-.22,1.11-.35.1.23.19.5.25.75l-1.35.63-1.37.64-1.9.89-.23.1c-.05-.14-.09-.32-.19-.51h0Zm-4.77,1.62l2.85-1.35.08-.04.61-.28,1.66-.79h.43l-.43.21-1.66.84-.61.3-.08.04-2.48,1.24c-.09-.05-.23-.09-.37-.15h0Zm-1.82-.95l.63-.28,4.04-1.79.08-.03.61-.27.08-.04c.17.13.31.22.4.33l-.48.22-.61.27-.08.04-4.04,1.84-.21.09c-.15-.09-.33-.27-.43-.39h0Zm-1.65-1.54l2.28-.81,3.88-1.35c.06.05.1.12.15.18.03.04.05.08.08.12.01.03.04.06.05.09l-.05.03-.08.03-4.04,1.56-1.96.77c-.09-.19-.23-.41-.32-.6h0Zm-1.12-2.15l3.4-.72,3.31-.71c.05.14.09.28.14.44l-3.46.81-3.16.75c-.1-.19-.19-.37-.24-.57h0Zm-.61-2.5l4.01-.15,3.04-.12c-.03.15-.03.32,0,.48l-3.04.27-4.01.36v-.84H.36Zm4.01-2.29l2.99.24c.03.42-.01.45,0,.52l-2.99-.13-4.01-.17v-.8l4.01.33h0Zm0-1.81l3.46.86c-.05.1-.09.24-.18.39l-3.27-.72-3.44-.76c.09-.21.18-.39.28-.57l3.16.8h0Zm0-2.15l4.04,1.56.08.03h.01s-.01.03-.01.04c-.03.04-.05.09-.08.14-.03.06-.06.13-.1.21l-3.93-1.35-2.32-.8c.09-.19.22-.41.32-.61l2,.78h0Zm4.04-.15l.08.04.61.27.62.28c-.14.12-.34.25-.45.3l-.17-.08-.61-.27-.08-.03-4.04-1.75-.68-.31c.14-.15.32-.3.46-.39l.22.12,4.04,1.81h0Zm2.81-.03c-.1.01-.23.01-.35.06l-.12-.06-1.66-.8-.61-.3-.08-.04-2.81-1.36c.1-.06.25-.1.33-.15l2.48,1.24.08.04.61.31,1.66.82.46.25h0Zm1.43,1.36c.66.57,1.12,1.49,1.37,2.25.12.37.18.7.19.93.05.78.05,1.24,0,2-.01.23-.08.57-.19.94-.25.77-.71,1.74-1.37,2.32-.35.31-.75.5-1.21.5-.08,0-.4-.03-.68-.1-.1-.03-.19-.05-.27-.09-.58-.28-1.11-.98-1.39-1.56-.04-.06-.06-.12-.09-.17-.23-.54-.45-1.6-.52-2.39-.01-.14-.03-.3-.03-.43,0-.03.01-.1.03-.22.04-.4.14-1.22.25-1.74.06-.3.18-.63.36-.98.27-.53.67-1.07,1.21-1.43.12-.09.27-.15.45-.22.23-.08.49-.12.64-.12.48,0,.89.19,1.25.5h0Zm1.37-.8l1.6.82.65.32c-.09.24-.22.51-.41.8-.08-.03-.15-.05-.23-.08-.44-.17-.9-.35-1.34-.57-.09-.05-.14-.23-.21-.31-.03-.01-.04-.04-.05-.05-.31-.39-.68-.76-1.08-1.03-.09-.06-.18-.12-.28-.18-.27-.15-.58-.28-.89-.43-.01-.1.09-.24.14-.39l.75.39,1.37.7h0Zm1.6-2.14l1.73,1.51.17.14c-.05.09-.1.18-.17.27-.1.14-.22.28-.34.42l-1.39-.98-1.6-1.14-1.01-.71.86-1.04.14.12,1.6,1.42h0Zm2.53-1.12l.97,1.35c-.23.19-.45.32-.7.5l-.27-.31-.8-.91-1.73-1.97-.39-.42.39-.3.67-.53,1.06,1.47.8,1.12h0Zm2.4-.55l.23.54.09.22s-.06.05-.09.08c-.08.05-.15.1-.23.15-.12.08-.26.15-.37.22l-.83-1.51-1.2-2.2-.31-.58c.09-.06.21-.12.31-.17.27-.15.57-.3.86-.42l.34.8,1.2,2.87h0Zm2.18.09c-.23.05-.5.14-.74.23l-.28-1.06-.93-3.4-.09-.33.09-.03.93-.31.21-.08.81,4.69v.28h0ZM25,.41l-.27,5.16c-.17-.01-.36-.01-.57-.01-.07,0-.14.01-.22.01l-.23-5.03c.14-.01.28-.04.45-.05.23-.03.49-.05.84-.08h0Zm3.04.09l-.12.41-.15.6-.77,2.9-.31,1.12c-.46-.01-.59-.01-.75,0l.85-5.17c.06.01.13.01.21.03.26.03.52.05.77.09.05,0,.1.01.15.01.04.01.08.01.12.01h0Zm2.85.72l-.67,1.38-.86,1.8-.8,1.65c-.21-.08-.43-.15-.63-.24-.04-.01-.06-.03-.1-.04l.1-.27,1.43-3.56.43-1.08.44.15.67.22h0Zm2.63,1.34l-.55.75-1.43,1.9-1.29,1.72s-.01,0-.03-.01c-.23-.13-.44-.26-.67-.4l.67-1.05,1.31-2.05.93-1.45c.17.09.34.18.5.28.18.1.36.21.55.31h0Zm2.19,1.88l-.79.71-1.96,1.8-1.29,1.18-.14-.13-.37-.37.37-.41,1.43-1.54,1.92-2.07.04.04.79.8h0Zm1.73,2.39l-2.51,1.53-1.96,1.2-.14.09c-.1-.14-.28-.36-.41-.61l.55-.42,1.96-1.47,1.83-1.38c.23.32.46.68.68,1.05h0Zm-24.79,4.3c-.3-.28-.67-.46-1.15-.46-.28,0-.53.06-.75.17-1.25.59-1.61,2.6-1.66,3.57-.01.08-.01.15-.01.22s0,.13.01.21c.05.94.46,3.01,1.66,3.64.22.12.48.18.75.18.12,0,.7-.13.94-.33.08-.05.14-.12.21-.18.91-.93,1.16-2.55,1.16-3.51,0-.72-.22-2.61-1.16-3.49h0Zm0,2.03c.31.49.4.99.4,1.45,0,.44-.09.96-.4,1.47-.1.18-.23.35-.4.51.22-.61.35-1.34.35-1.98s-.14-1.24-.3-1.89c.14.14.26.3.35.44h0Zm98.7,6.63l-1.19-.04v.18h.45v1.2h.28s0-1.17,0-1.17h.45s0-.17,0-.17h0Z"/></svg>