<svg xmlns="http://www.w3.org/2000/svg" width="700" height="155" viewBox="0 0 700 155" fill="none"><g clip-path="url(#clip0_164_1573)"><path d="M260.949 109.21V31.6292H282.511V125.919H242.382L222.417 49.7313H219.821V125.919H198.459V31.6292H238.788L258.753 109.21H260.949Z" fill="#334C4B"></path><path d="M355.582 54.3062V109.01H365.963V125.919H342.804L341.806 117.962H341.607C335.817 125.123 328.031 128.704 318.048 128.704C309.264 128.704 302.076 126.516 296.886 121.941C291.695 117.365 289.1 111.397 289.1 104.435C289.1 96.4783 292.493 90.1126 299.082 85.5373C305.67 80.9621 315.852 78.575 329.228 78.575C331.624 78.575 333.421 78.575 334.219 78.7739V71.0161H297.484V54.3062H355.582ZM321.043 111.596C324.636 111.596 327.831 110.403 330.426 108.215C333.022 105.828 334.219 103.441 334.419 100.457V94.6878C333.82 94.6878 332.623 94.489 330.826 94.489C323.439 94.489 318.248 95.2844 315.253 96.6772C312.259 98.0699 310.661 100.457 310.661 103.441C310.661 108.811 314.056 111.596 321.043 111.596Z" fill="#334C4B"></path><path d="M375.946 125.919V71.0161H365.165V54.3065C370.555 54.3065 374.349 52.7151 376.345 49.3334C378.342 45.9517 379.34 39.9839 379.34 31.6292H397.109V54.3065H419.868V71.0161H397.109V108.812H419.868V125.919H375.946Z" fill="#334C4B"></path><path d="M431.647 45.7524V26.2578H453.209V45.7524H431.647ZM431.647 125.919V54.3062H453.009V125.919H431.647Z" fill="#334C4B"></path><path d="M487.748 125.919L460.596 54.3062H484.354L498.729 99.0642L513.104 54.3062H537.061L509.909 125.919H487.748Z" fill="#334C4B"></path><path d="M601.746 54.3062V109.01H612.128V125.919H588.969L587.97 117.962H587.771C581.981 125.123 574.195 128.704 564.213 128.704C555.428 128.704 548.241 126.516 543.05 121.941C537.859 117.365 535.264 111.397 535.264 104.435C535.264 96.4783 538.658 90.1126 545.246 85.5373C551.834 80.9621 562.017 78.575 575.393 78.575C577.789 78.575 579.585 78.575 580.384 78.7739V71.0161H543.649V54.3062H601.746ZM567.207 111.596C570.801 111.596 573.995 110.403 576.591 108.215C579.186 105.828 580.384 103.441 580.584 100.457V94.6878C579.985 94.6878 578.787 94.489 576.99 94.489C569.603 94.489 564.412 95.2844 561.417 96.6772C558.423 98.0699 556.826 100.457 556.826 103.441C556.626 108.811 560.22 111.596 567.207 111.596Z" fill="#334C4B"></path><path d="M650.061 128.505C631.094 128.505 619.714 120.946 615.921 105.828L636.285 101.451C636.884 104.634 638.481 107.021 640.677 109.011C643.073 110.801 646.068 111.796 649.661 111.796C657.251 111.796 660.845 109.806 660.845 106.026C660.845 104.237 659.247 102.844 656.247 101.85C655.653 101.65 654.251 101.252 651.658 100.457L644.67 98.6664C637.284 96.6771 631.094 94.4889 626.502 91.7041C621.112 88.3227 618.317 82.9513 618.317 75.7901C618.317 68.6289 620.912 63.0591 626.303 58.6827C631.693 54.5053 639.28 52.3171 648.863 52.3171C666.435 52.3171 677.21 59.6773 681.006 74.5969L660.245 78.7738C660.043 75.7901 658.843 73.6019 656.651 71.6126C654.453 69.8228 651.658 68.8278 648.064 68.8278C642.674 68.8278 639.879 70.4194 639.879 73.6019C639.879 75.989 640.677 77.5806 642.474 78.7738C644.271 79.9676 647.864 81.1615 653.253 82.3547C663.637 85.1395 671.027 87.9243 675.416 90.9086C679.61 93.8923 681.802 98.6664 681.802 105.231C681.802 112.989 679.01 118.758 673.616 122.737C668.228 126.516 660.441 128.505 650.061 128.505Z" fill="#334C4B"></path><path d="M685.599 60.2743V54.3065H683.4V52.9141H689.792V54.3065H687.594V60.2743H685.599Z" fill="#334C4B"></path><path d="M696.38 52.9141H699.974V60.4732H698.174V54.5055H697.776L696.98 60.4732H693.986L692.988 54.5055H692.584V60.4732H690.79V52.9141H694.384L695.18 59.0807H695.578L696.38 52.9141Z" fill="#334C4B"></path><path d="M158.531 41.5753L50.5215 149.194C48.1257 148.199 45.9295 147.204 43.7334 146.209L134.173 22.8763L140.162 14.7205L142.359 16.9086C149.147 23.871 154.338 31.8279 158.131 40.1828L158.531 41.5753Z" fill="#39B54A"></path><path d="M107.82 5.56982L6.99841 106.026L0.0107422 112.989L0.60978 114.382C4.20343 122.935 11.1909 133.08 18.1786 140.043L24.168 131.887L114.608 8.55371L107.82 5.56982Z" fill="#009444"></path><path d="M133.974 132.086C126.986 139.048 119.2 144.22 110.815 148C102.429 151.779 93.4453 153.967 84.4618 154.564L78.4722 154.962L156.734 76.9834L156.334 82.9514C155.136 100.656 147.749 118.36 133.974 132.086Z" fill="#8DC63F"></path><path d="M79.6696 0L1.60791 77.7794L2.00711 72.011C3.20499 54.1075 10.7916 36.4032 24.5673 22.6774C38.343 8.95166 55.9117 1.39248 74.0797 0.198937L79.6696 0Z" fill="#334C4B"></path></g><defs><clipPath id="clip0_164_1573"><rect width="700" height="155" fill="white"></rect></clipPath></defs></svg>