<svg xmlns="http://www.w3.org/2000/svg" width="121" height="56" viewBox="0 0 121 56" fill="none"><path fill-rule="evenodd" clip-rule="evenodd" d="M0 56C12.5231 49.7372 27.7175 46.4747 42.3754 44.2388C42.2384 45.0601 42.0558 46.8511 42.0558 46.8511C27.7632 48.836 12.603 52.053 0 56Z" fill="white"></path><path fill-rule="evenodd" clip-rule="evenodd" d="M45.4578 43.8963C75.0247 40.3713 105.208 44.8089 120.939 52.6003C100.573 45.7443 72.6159 42.8924 45.0811 46.0979L45.4578 43.8963Z" fill="white"></path><path d="M25.5826 13.7918C15.0116 13.6207 9.63474 21.5946 9.52058 28.4962C9.40642 35.0328 14.1326 39.8354 21.7583 39.9608C31.2791 40.1206 37.8203 33.4699 37.9573 25.4732C38.0829 18.1381 32.5462 13.9058 25.5712 13.7918M15.7422 30.4013C15.8221 25.5302 18.1623 16.1303 25.3885 16.2444C30.0804 16.3243 31.8042 19.2902 31.7357 23.3285C31.6558 28.1996 29.3156 37.5995 22.0894 37.4854C17.3975 37.4055 15.6737 34.4396 15.7422 30.4013Z" fill="white"></path><path d="M65.1042 18.4115C66.7366 18.4343 68.0723 17.1225 68.0951 15.514C68.1179 13.9055 66.8394 12.548 65.1955 12.5252C63.5516 12.5024 62.2274 13.78 62.2045 15.4227C62.1817 17.0654 63.4603 18.3887 65.1042 18.4115ZM56.4624 39.5955C57.2958 39.5042 58.3232 39.413 59.5218 39.4244C60.8346 39.4472 61.7023 39.5727 62.5699 39.6981C64.5562 29.6366 65.7549 25.4729 66.7937 21.8566C65.8119 21.9479 64.8644 22.0392 63.8827 22.0278C62.8324 22.0049 61.8164 21.9251 60.7662 21.754C59.6474 27.6175 57.878 35.6599 56.4738 39.5955" fill="white"></path><path d="M69.579 33.8804C69.2251 35.2493 68.6658 36.4813 68.1406 37.4167C70.1841 39.048 72.3873 39.8922 75.0472 39.9378C79.956 40.0177 82.2848 37.257 82.3419 33.983C82.3875 31.3365 80.9149 29.9676 78.4034 28.4275C75.5609 26.705 75.0586 26.3742 75.0814 25.2106C75.1043 23.6477 76.497 23.0888 77.844 23.1116C80.1729 23.1458 81.3487 24.663 81.7026 26.9217L82.3875 27.1841C82.7414 25.8038 83.3008 24.6174 83.9401 23.7276C83.2551 23.1002 81.3259 21.3548 77.8326 21.2978C73.0722 21.2179 70.869 24.6288 70.8233 27.2525C70.7891 29.2831 71.885 30.9714 74.1567 32.3974C77.0335 34.1884 77.6842 34.6333 77.6614 35.8653C77.6386 37.4966 75.8805 38.0556 74.4992 38.0327C72.1019 37.9985 70.5608 36.4014 70.2069 34.0058L69.5904 33.8918L69.579 33.8804Z" fill="white"></path><path fill-rule="evenodd" clip-rule="evenodd" d="M82.0793 0.114069C67.5585 -1.07232 54.9668 6.93583 46.7703 23.2715C43.7451 16.8148 42.0442 14.4877 35.834 12.6168C43.631 18.1723 44.8981 37.474 42.7063 50.5586C46.9073 28.9525 61.1999 2.81767 82.0793 0.114069Z" fill="white"></path><path fill-rule="evenodd" clip-rule="evenodd" d="M45.6517 26.1463C46.0056 24.709 46.7705 23.2716 46.7705 23.2716C46.0627 21.7658 45.1494 19.8835 44.2133 18.4234C44.2133 18.4234 44.0535 18.161 43.7225 17.6933C43.6882 17.6476 44.3617 19.3588 44.6015 20.0889C45.0467 21.4464 45.6403 23.1119 45.6517 26.1463Z" fill="white"></path><path d="M93.5982 26.5226C93.7352 25.4503 94.0777 22.9406 96.3723 22.952C97.9476 22.952 98.5298 24.1384 98.5298 25.5872C98.507 28.9296 96.3837 31.3024 95.0594 32.717C93.0617 34.8502 90.7785 36.6868 88.3812 38.3067C88.3241 38.9455 88.3013 39.2193 88.21 39.6756C90.1392 39.5729 93.2443 39.5387 95.2878 39.5501C97.0001 39.5501 98.8723 39.6186 100.562 39.7441C100.733 37.896 100.95 37.0975 101.384 36.0024C100.071 36.105 98.1417 36.1735 95.9955 36.1621C95.2763 36.1621 94.5229 36.1621 93.7695 36.1278C94.6827 35.4662 99.1463 32.2264 100.139 31.4507C100.893 30.8689 102.993 29.0323 103.005 26.3857C103.016 23.5452 100.619 21.4234 96.8175 21.4006C93.016 21.3778 91.7489 23.2258 90.9612 24.2867C92.2626 25.4161 92.7192 26.0321 93.1758 26.7622L93.5754 26.5454L93.5982 26.5226Z" fill="white"></path><path d="M109.58 24.9828C108.758 29.466 107.285 35.6489 106.018 39.7556C106.817 39.6872 107.605 39.6188 108.404 39.6302C109.203 39.6416 109.957 39.71 110.733 39.8241C111.315 35.261 113.553 26.3061 114.945 21.6632C114.683 21.5833 114.443 21.4122 114.26 21.2183C111.098 22.9294 107.947 23.7622 105.231 24.4694L105.196 24.709C105.584 25.2223 105.801 25.5189 106.03 26.3517C107.571 25.633 107.788 25.5532 109.454 24.8801L109.591 24.96L109.58 24.9828Z" fill="white"></path></svg>