<svg xmlns="http://www.w3.org/2000/svg" width="158" height="60" viewBox="0 0 158 60" fill="none"><path d="M125.507 55.737V46.8432C124.866 46.9939 123.81 47.2012 122.679 47.2012C120.341 47.2012 118.794 46.4287 118.794 43.5269V30.3935H125.658V20.9909H118.794V10.7405H109.178V15.2627C109.178 18.5037 107.405 20.9909 103.728 20.9909H101.956V30.3935H108.178V45.4488C108.178 52.4395 112.628 56.7545 119.907 56.7545C123.301 56.7545 125.073 55.9819 125.488 55.7747" fill="#3F3938"></path><path d="M157.544 45.2791C157.544 40.1162 153.999 35.7447 146.72 34.2561L142.063 33.3328C140.498 33.0501 139.31 32.2022 139.31 30.7136C139.31 28.8859 141.082 27.68 143.119 27.68C146.381 27.68 147.852 29.6585 148.135 31.995L157.035 30.3745C156.677 26.2856 153.15 19.9167 142.968 19.9167C135.124 19.9167 129.467 25.1362 129.467 31.5804C129.467 36.5172 132.427 40.7568 139.932 42.3961L143.967 43.3194C146.588 43.8847 147.437 44.9399 147.437 46.2212C147.437 47.7663 146.098 49.2549 143.345 49.2549C139.668 49.2549 137.971 46.9184 137.839 44.5254L128.713 46.1459C128.996 50.0275 132.522 57.1689 143.553 57.1689C152.962 57.1689 157.544 51.3088 157.544 45.2979" fill="#3F3938"></path><path d="M11.4268 40.3426C11.4268 38.7033 11.6531 37.3089 12.0302 36.1218C13.2182 32.8809 16.3106 30.5632 19.9687 30.5632C21.0435 30.5632 22.0806 30.7705 23.0234 31.1473V20.6708C22.0429 20.3693 21.0058 20.1997 19.931 20.1997C16.1786 20.1997 12.8976 22.2159 11.0685 25.193V20.8969H0.678772V56.717H11.4268V40.3426Z" fill="#3F3938"></path><path d="M64.658 20.9156V43.15C64.658 50.6306 69.4664 56.8487 78.0271 56.8487C81.1761 56.8487 84.7022 55.8312 86.7387 53.4758V56.7733H97.6753V20.8967H86.9272V40.9454C86.9272 44.469 84.6645 46.9563 81.0629 46.9563C77.254 46.9563 75.406 44.2806 75.406 40.8889V20.9156H64.658Z" fill="#3F3938"></path><path d="M43.8973 0C53.0048 0 60.3965 7.38636 60.3965 16.4874V18.4471L56.267 21.2169C55.5127 21.7257 54.5322 21.7257 53.7779 21.2169L49.6485 18.4471V16.4874C49.6485 13.303 47.0651 10.7404 43.8973 10.7404C40.7294 10.7404 38.1461 13.3218 38.1461 16.4874V20.8966L33.9412 18.0702C33.2435 17.5991 32.3195 17.5991 31.6218 18.0702L27.4169 20.8966V16.4874C27.4169 7.38636 34.8086 0 43.9161 0" fill="#9AC168"></path><path d="M56.1915 25.3248C55.4938 25.7958 54.5698 25.7958 53.8722 25.3248L49.6484 22.4983V40.9454C49.6484 44.4878 47.3856 46.9562 43.784 46.9562C39.9751 46.9562 38.1272 44.2806 38.1272 40.8889V25.0233L33.9977 22.2534C33.2434 21.7446 32.2629 21.7446 31.5086 22.2534L27.3791 25.0233V43.15C27.3791 50.6306 32.1875 56.8487 40.7482 56.8487C43.8972 56.8487 47.4233 55.8312 49.4598 53.4758V56.7168L53.7778 59.6186C54.5321 60.1273 55.5126 60.1273 56.2669 59.6186L60.3964 56.8487V22.5172L56.1726 25.3436L56.1915 25.3248Z" fill="#3F3938"></path></svg>