<svg xmlns="http://www.w3.org/2000/svg" id="Layer_2" data-name="Layer 2" viewBox="0 0 478.4 574.1"><defs><style>      .cls-1 {        fill: #1d1d1b;        stroke-width: 0px;      }    </style></defs><path class="cls-1" d="M284.5,298.1v-.6c18.2-7.4,29.2-23.1,29.2-44s-10.2-33.3-23.1-41c-11.9-7.2-34.7-7.2-52.1-7.2h-71.4v196.6h95.1c39.1,0,59.8-27.5,59.8-56.4s-13.2-42.4-37.5-47.4ZM193.2,227.3h52.4c22.6,0,41.9,3.8,41.9,31.1s-12.1,31.4-41.9,31.4h-52.4v-62.5ZM258.8,379.8h-65.6v-68h59.8c22.1,0,42.7,7.2,42.7,32.8s-14.3,35.2-36.9,35.2Z"></path><path class="cls-1" d="M388.9,303.7c0,82.6-67,149.5-149.7,149.5s-149.7-66.9-149.7-149.5,67-149.5,149.7-149.5,149.7,66.9,149.7,149.5M239.2,131.3c-95.2,0-172.4,77.1-172.4,172.2s77.2,172.2,172.4,172.2,172.5-77.1,172.5-172.2-77.2-172.2-172.5-172.2"></path><rect class="cls-1" x="67.1" y="512.1" width="344.2" height="22.6"></rect><path class="cls-1" d="M400.5,487.2c.4,0,.8,0,1.2,0,.3,0,.7,0,1-.2.3-.1.5-.3.7-.6.2-.3.2-.6.2-1.1s0-.7-.2-.9c-.2-.3-.4-.4-.6-.5-.3-.1-.5-.2-.8-.3-.3,0-.6,0-.9,0h-2.5v3.8h2ZM401.4,481.9c1.4,0,2.5.3,3.2.8.7.6,1,1.4,1,2.6s-.3,1.9-.9,2.4c-.6.5-1.4.8-2.3.9l3.4,5.3h-2l-3.3-5.2h-2v5.2h-1.9v-12h4.7ZM392.9,491.3c.4,1.1,1,2,1.8,2.8.7.8,1.6,1.4,2.7,1.9,1,.4,2.2.6,3.3.6s2.3-.2,3.3-.6c1-.5,1.9-1.1,2.7-1.9.7-.8,1.3-1.7,1.8-2.8.4-1.1.7-2.2.7-3.5s-.2-2.4-.7-3.4c-.4-1.1-1-2-1.8-2.8-.8-.8-1.7-1.4-2.7-1.8-1-.4-2.1-.7-3.3-.7s-2.3.2-3.3.7c-1,.5-2,1.1-2.7,1.8-.8.8-1.4,1.7-1.8,2.8-.4,1.1-.7,2.2-.7,3.4s.2,2.4.7,3.5M391.2,483.8c.6-1.2,1.3-2.3,2.2-3.2.9-.9,2-1.6,3.3-2.1,1.2-.5,2.6-.8,4-.8s2.8.2,4,.8c1.2.5,2.3,1.2,3.2,2.1.9.9,1.7,2,2.2,3.2.6,1.3.8,2.6.8,4.1s-.3,2.8-.8,4.1c-.5,1.3-1.3,2.3-2.2,3.3-.9.9-2,1.6-3.2,2.2-1.3.5-2.6.8-4,.8s-2.7-.3-4-.8c-1.3-.5-2.4-1.2-3.3-2.2-.9-.9-1.7-2-2.2-3.3-.6-1.2-.8-2.6-.8-4.1s.2-2.8.8-4.1"></path><path class="cls-1" d="M83.9,87.6c.8,1.4,1.8,2.6,3,3.5,1.2.9,2.7,1.6,4.4,2,1.7.4,3.4.7,5.2.7s2.5,0,3.9-.3c1.4-.2,2.7-.6,3.9-1.2,1.2-.6,2.2-1.4,3-2.4.8-1,1.2-2.3,1.2-3.9s-.5-3-1.6-4.1c-1.1-1-2.5-1.9-4.2-2.6-1.7-.7-3.7-1.3-5.9-1.8-2.2-.5-4.4-1.1-6.7-1.7-2.3-.6-4.6-1.3-6.8-2.1-2.2-.8-4.2-1.9-5.9-3.3s-3.1-3-4.2-5c-1.1-2-1.6-4.4-1.6-7.3s.7-6,2-8.3c1.4-2.3,3.1-4.3,5.3-5.9,2.2-1.6,4.7-2.7,7.5-3.5,2.8-.8,5.6-1.1,8.3-1.1s6.4.4,9.3,1.1c3,.7,5.6,1.9,8,3.5,2.3,1.6,4.2,3.7,5.5,6.2,1.4,2.5,2,5.6,2,9.2h-13.2c-.1-1.9-.5-3.4-1.2-4.6-.7-1.2-1.6-2.2-2.7-2.9-1.1-.7-2.4-1.2-3.8-1.5-1.4-.3-3-.4-4.7-.4s-2.2.1-3.3.3c-1.1.2-2.1.6-3,1.2-.9.6-1.6,1.3-2.2,2.2-.6.9-.9,2-.9,3.3s.2,2.2.7,3c.5.8,1.4,1.4,2.7,2.1,1.4.6,3.2,1.3,5.7,1.9,2.4.6,5.5,1.4,9.4,2.4,1.2.2,2.8.7,4.8,1.3,2.1.6,4.1,1.6,6.1,2.9,2,1.3,3.8,3.1,5.3,5.3,1.5,2.2,2.2,5.1,2.2,8.6s-.6,5.5-1.7,7.9c-1.1,2.4-2.7,4.5-4.9,6.3-2.2,1.8-4.9,3.1-8.1,4.1-3.2,1-6.9,1.5-11.2,1.5s-6.7-.4-10-1.3c-3.2-.8-6.1-2.2-8.5-4-2.5-1.8-4.4-4.1-5.9-6.9-1.4-2.8-2.1-6.1-2.1-9.9h13.2c0,2.1.4,3.9,1.1,5.3"></path><rect class="cls-1" x="130.2" y="58" width="12.3" height="44.9"></rect><rect class="cls-1" x="130.2" y="40.9" width="12.3" height="10.2"></rect><path class="cls-1" d="M164,91.8c.5,1,1.3,1.7,2.1,2.3.9.6,1.9,1.1,3,1.3,1.1.3,2.3.4,3.5.4s1.8,0,2.7-.3c1-.2,1.8-.5,2.6-1,.8-.4,1.4-1,2-1.7.5-.7.8-1.6.8-2.7,0-1.9-1.2-3.2-3.7-4.2-2.5-.9-5.9-1.9-10.3-2.8-1.8-.4-3.5-.9-5.3-1.4-1.7-.5-3.2-1.3-4.6-2.2-1.3-.9-2.4-2-3.2-3.4-.8-1.4-1.2-3-1.2-5,0-2.9.6-5.3,1.7-7.1,1.1-1.9,2.6-3.3,4.5-4.4,1.9-1.1,3.9-1.8,6.3-2.3,2.3-.4,4.7-.7,7.1-.7s4.8.2,7.1.7c2.3.5,4.3,1.2,6.1,2.3,1.8,1.1,3.3,2.6,4.5,4.4,1.2,1.8,1.9,4.1,2.1,6.9h-11.7c-.2-2.4-1.1-4-2.7-4.8-1.6-.8-3.5-1.3-5.7-1.3s-1.4,0-2.3.1c-.8,0-1.6.3-2.2.6-.7.3-1.2.7-1.7,1.3-.5.6-.7,1.3-.7,2.2s.4,2,1.2,2.7c.8.7,1.9,1.3,3.2,1.7,1.3.4,2.8.8,4.5,1.2,1.7.3,3.4.7,5.1,1.1,1.8.4,3.5.9,5.3,1.5,1.7.6,3.2,1.3,4.6,2.3,1.3,1,2.4,2.1,3.2,3.6.8,1.4,1.2,3.2,1.2,5.3,0,3-.6,5.4-1.8,7.4-1.2,2-2.7,3.6-4.7,4.8-1.9,1.2-4.1,2.1-6.6,2.6-2.5.5-5,.7-7.5.7s-5.2-.3-7.6-.8c-2.5-.5-4.7-1.4-6.6-2.6-1.9-1.2-3.5-2.8-4.8-4.8-1.2-2-1.9-4.5-2-7.5h11.7c0,1.3.3,2.5.8,3.4"></path><path class="cls-1" d="M226.3,58v8.3h-9v22.3c0,2.1.3,3.5,1,4.2.7.7,2.1,1,4.2,1s1.4,0,2,0c.6,0,1.2-.1,1.8-.3v9.6c-1,.2-2.2.3-3.5.3-1.3,0-2.5,0-3.7,0-1.9,0-3.7-.1-5.4-.4-1.7-.3-3.2-.8-4.5-1.5-1.3-.8-2.3-1.8-3.1-3.2-.8-1.4-1.1-3.2-1.1-5.5v-26.5h-7.5v-8.3h7.5v-13.5h12.3v13.5h9Z"></path><path class="cls-1" d="M260.6,68.5c-1.5-1.6-3.7-2.4-6.7-2.4s-3.6.3-4.9,1c-1.3.7-2.3,1.5-3.1,2.5-.8,1-1.3,2-1.7,3.1-.3,1.1-.5,2.1-.6,3h20.1c-.6-3.1-1.6-5.5-3.1-7.1M246.7,92.2c1.9,1.8,4.5,2.7,8,2.7s4.6-.6,6.4-1.9c1.8-1.2,2.9-2.6,3.3-4h10.9c-1.7,5.4-4.4,9.2-8,11.6-3.6,2.3-7.9,3.5-13,3.5s-6.7-.6-9.6-1.7c-2.8-1.1-5.2-2.7-7.2-4.8-2-2.1-3.5-4.6-4.6-7.5-1.1-2.9-1.6-6.1-1.6-9.6s.5-6.5,1.7-9.4c1.1-2.9,2.7-5.4,4.7-7.5,2-2.1,4.4-3.8,7.3-5,2.8-1.2,5.9-1.8,9.3-1.8s7.2.7,10,2.2c2.8,1.5,5.2,3.5,7,6,1.8,2.5,3.1,5.3,4,8.5s1.1,6.5.9,10h-32.4c.2,4,1.2,6.9,3,8.7"></path><path class="cls-1" d="M296.7,58v6.1h.2c1.6-2.3,3.6-4.1,5.9-5.4,2.3-1.3,4.9-1.9,7.9-1.9s5.4.6,7.8,1.7c2.3,1.1,4.1,3,5.3,5.8,1.3-2,3.1-3.7,5.4-5.2,2.3-1.5,5-2.3,8.1-2.3s4.6.3,6.6.9c2,.6,3.8,1.5,5.2,2.8,1.4,1.3,2.6,2.9,3.4,5,.8,2.1,1.2,4.5,1.2,7.4v30.1h-12.3v-25.5c0-1.5,0-2.9-.2-4.3-.1-1.3-.4-2.5-1-3.5-.5-1-1.3-1.8-2.3-2.3-1-.6-2.4-.9-4.1-.9s-3.1.3-4.2,1c-1.1.7-1.9,1.5-2.5,2.6-.6,1.1-1,2.3-1.2,3.7-.2,1.4-.3,2.7-.3,4.1v25h-12.3v-25.2c0-1.3,0-2.7,0-4,0-1.3-.3-2.5-.7-3.6-.4-1.1-1.2-2-2.2-2.7-1-.7-2.5-1-4.5-1s-1.3.1-2.3.4c-1,.3-1.9.8-2.8,1.5-.9.7-1.7,1.8-2.3,3.1-.6,1.4-1,3.1-1,5.3v26.1h-12.3v-44.9h11.6Z"></path><path class="cls-1" d="M392.7,80.9c-.5.5-1.2.8-2,1.1-.8.3-1.6.5-2.5.7-.9.2-1.8.3-2.8.4-1,.1-2,.3-3,.4-.9.2-1.8.4-2.7.7-.9.3-1.7.7-2.3,1.2-.7.5-1.2,1.1-1.6,1.9-.4.8-.6,1.7-.6,2.9s.2,2,.6,2.8c.4.8,1,1.3,1.7,1.8.7.4,1.5.7,2.4.9.9.2,1.9.3,2.9.3,2.4,0,4.3-.4,5.6-1.2,1.3-.8,2.3-1.8,3-2.9.6-1.1,1-2.3,1.2-3.4.1-1.2.2-2.1.2-2.8v-4.6ZM364.2,71.8c.2-2.9.9-5.3,2.2-7.2,1.3-1.9,2.9-3.4,4.9-4.6,2-1.2,4.2-2,6.6-2.5,2.5-.5,4.9-.7,7.4-.7s4.5.2,6.9.5c2.3.3,4.4.9,6.3,1.9,1.9.9,3.5,2.2,4.7,3.9,1.2,1.7,1.8,3.8,1.8,6.6v23.4c0,2,.1,4,.3,5.8.2,1.9.6,3.2,1.2,4.2h-12.5c-.2-.7-.4-1.4-.6-2.1-.1-.7-.2-1.5-.3-2.2-2,2-4.3,3.4-7,4.3-2.7.8-5.4,1.2-8.2,1.2s-4.1-.3-6-.8c-1.9-.5-3.5-1.3-4.9-2.4-1.4-1.1-2.5-2.5-3.3-4.2-.8-1.7-1.2-3.7-1.2-6s.4-4.6,1.3-6.3c.9-1.7,2.1-3,3.5-4,1.4-1,3-1.7,4.9-2.2,1.8-.5,3.7-.9,5.5-1.2,1.9-.3,3.7-.5,5.5-.7,1.8-.2,3.4-.4,4.8-.8,1.4-.3,2.5-.9,3.3-1.5.8-.7,1.2-1.6,1.1-2.9,0-1.3-.2-2.4-.7-3.2-.4-.8-1-1.4-1.7-1.8-.7-.4-1.6-.7-2.5-.9-1-.1-2-.2-3.1-.2-2.4,0-4.3.5-5.7,1.6-1.4,1-2.2,2.8-2.4,5.2h-12.3Z"></path></svg>