<?xml version="1.0" encoding="utf-8"?>
<!-- Generator: Adobe Illustrator 16.0.0, SVG Export Plug-In . SVG Version: 6.00 Build 0)  -->
<!DOCTYPE svg PUBLIC "-//W3C//DTD SVG 1.1//EN" "http://www.w3.org/Graphics/SVG/1.1/DTD/svg11.dtd">
<svg version="1.1" id="Capa_1" xmlns="http://www.w3.org/2000/svg" xmlns:xlink="http://www.w3.org/1999/xlink" x="0px" y="0px"
	 width="176.667px" height="52.667px" viewBox="0 0 176.667 52.667" enable-background="new 0 0 176.667 52.667"
	 xml:space="preserve">
<g>
	<g>
		<path fill="#FFFFFF" d="M13.336,34.06V15.431H3.667v-4.429h24.512v4.429h-9.669V34.06H13.336z"/>
		<path fill="#FFFFFF" d="M41.161,34.06c-1.69,0-3.099-0.141-4.226-0.423c-1.127-0.281-2.029-0.732-2.705-1.353
			c-0.676-0.619-1.155-1.432-1.437-2.434c-0.282-1.003-0.423-2.237-0.423-3.702v-7.235c0-1.442,0.141-2.671,0.423-3.686
			c0.282-1.014,0.761-1.831,1.437-2.451c0.676-0.619,1.577-1.07,2.705-1.353c1.127-0.281,2.536-0.422,4.226-0.422h8.756
			c1.713,0,3.133,0.141,4.26,0.422c1.127,0.282,2.028,0.733,2.705,1.353c0.676,0.62,1.155,1.438,1.437,2.451
			c0.281,1.015,0.422,2.243,0.422,3.686v7.235c0,1.465-0.141,2.699-0.422,3.702c-0.282,1.002-0.761,1.814-1.437,2.434
			c-0.676,0.62-1.578,1.071-2.705,1.353c-1.127,0.282-2.547,0.423-4.26,0.423H41.161z M53.602,19.15
			c0-0.721-0.062-1.318-0.186-1.792c-0.124-0.474-0.333-0.856-0.625-1.149c-0.293-0.293-0.693-0.495-1.2-0.608
			c-0.507-0.112-1.133-0.169-1.876-0.169h-8.317c-0.811,0-1.471,0.057-1.978,0.169c-0.507,0.113-0.908,0.315-1.2,0.608
			c-0.293,0.293-0.49,0.676-0.591,1.149c-0.102,0.474-0.152,1.071-0.152,1.792v6.796c0,0.743,0.05,1.358,0.152,1.843
			c0.101,0.484,0.298,0.868,0.591,1.149c0.292,0.282,0.693,0.474,1.2,0.574c0.507,0.102,1.167,0.152,1.978,0.152h8.317
			c0.744,0,1.369-0.051,1.876-0.152c0.507-0.101,0.907-0.292,1.2-0.574c0.292-0.281,0.501-0.665,0.625-1.149
			c0.124-0.484,0.186-1.1,0.186-1.843V19.15z"/>
		<path fill="#FFFFFF" d="M88.594,34.567c-0.541,0-1.043-0.085-1.505-0.253c-0.462-0.17-0.896-0.445-1.301-0.829L68.985,17.663
			V34.06h-4.767V12.625c0-0.721,0.253-1.256,0.761-1.605c0.507-0.35,1.167-0.524,1.978-0.524c0.586,0,1.07,0.079,1.454,0.237
			c0.383,0.158,0.698,0.36,0.947,0.608l16.938,16.33V11.002h4.869v21.435c0,0.767-0.237,1.313-0.71,1.64
			C89.98,34.404,89.36,34.567,88.594,34.567z"/>
		<path fill="#FFFFFF" d="M114.728,34.06L101.88,22.801V34.06h-5.104V11.002h5.104v11.021l12.577-11.021h6.932l-13.186,11.19
			L121.76,34.06H114.728z"/>
		<path fill="#FFFFFF" d="M149.01,28.751h-15.959l-3.279,5.309h-5.916l13.389-21.3c0.405-0.653,0.889-1.194,1.453-1.623
			c0.563-0.428,1.375-0.643,2.435-0.643c1.036,0,1.837,0.215,2.399,0.643c0.564,0.429,1.049,0.97,1.454,1.623l13.321,21.3h-5.95
			L149.01,28.751z M135.453,24.796h11.156l-5.577-9.095L135.453,24.796z"/>
	</g>
	<g>
		<path fill="#FFD500" d="M145.186,41.967c-0.07-0.157-0.365-0.337-0.529-0.383c-0.279-0.077-0.584-0.084-0.877-0.085
			c-2.555-0.006-5.109-0.002-7.665-0.005c-0.806-0.001-0.879-0.076-0.888-0.857c-0.004-0.317,0.017-0.635-0.004-0.95
			c-0.031-0.492,0.23-0.689,0.676-0.721c0.168-0.012,0.338-0.014,0.506-0.014c2.514-0.001,5.027-0.039,7.539,0.019
			c0.947,0.022,1.912,0.187,2.826,0.438c-0.008,1.241,0.848,2.315,2.033,2.687c0.031,1.11,0.031,2.222-0.003,3.332
			c-1.188,0.317-2.022,1.392-2.077,2.62c-0.58,0.163-1.193,0.269-1.792,0.277c-2.364,0.035-4.731,0.055-7.095-0.01
			c-1.404-0.038-3.161-0.574-3.233-2.22c-0.024-0.541-0.023-1.086-0.001-1.627c0.864-0.249,1.484-1.022,1.512-1.921
			c0.604-0.166,1.241-0.285,1.865-0.295c2.154-0.036,4.308-0.013,6.462-0.018c0.173-0.001,0.367-0.005,0.538-0.04
			C145.188,42.152,145.229,42.064,145.186,41.967z M141.759,44.534c-0.947,0-1.896-0.005-2.843,0.002
			c-0.652,0.006-0.77,0.123-0.764,0.709c0.006,0.56,0.109,0.668,0.738,0.67c1.727,0.007,3.453,0.009,5.18-0.006
			c0.268-0.002,0.553-0.053,0.795-0.16c0.359-0.159,0.406-0.516,0.367-0.865c-0.043-0.396-0.365-0.345-0.631-0.347
			C143.655,44.531,142.708,44.534,141.759,44.534z M101.957,48.339c1.457,0,2.915,0.041,4.37-0.019
			c1.027-0.042,2.329-0.242,2.687-1.365c0.331-1.042,0.286-2.082-0.019-3.117c-0.152-0.519-0.505-0.912-1.006-1.066
			c-0.619-0.189-1.266-0.364-1.906-0.386c-1.645-0.054-3.293-0.019-4.94-0.02c-0.169,0-0.338,0.001-0.507-0.003
			c-0.243-0.007-0.486-0.031-0.494-0.354c-0.01-0.365,0.259-0.382,0.523-0.388c0.148-0.004,0.296-0.003,0.443-0.003
			c1.943,0,3.886,0,5.828,0c1.484,0,1.579-0.094,1.546-1.563c-0.604-0.009-1.101-0.496-1.11-1.101
			c-1.532-0.011-3.064-0.02-4.598,0.001c-1.369,0.018-2.74,0.047-4.107,0.124c-1.19,0.068-1.92,0.688-2.051,1.774
			c-0.082,0.685-0.053,1.392,0.008,2.082c0.808,0.162,1.412,0.844,1.489,1.664c1.034,0.215,2.107,0.188,3.162,0.189
			c1.177,0.002,2.354-0.002,3.53,0c0.189,0,0.396-0.021,0.562,0.046c0.214,0.087,0.304,0.339,0.224,0.55
			c-0.121,0.322-0.479,0.277-0.77,0.278c-1.267,0.003-2.533,0.002-3.801,0.002c-1.14,0-2.279-0.002-3.42,0.001
			c-0.92,0.002-1.035,0.115-1.042,1.007c-0.002,0.277-0.003,0.555,0.001,0.832c0.464-0.008,0.844,0.371,0.859,0.835
			C98.931,48.346,100.444,48.342,101.957,48.339z M118.52,48.427c-1.252,0.01-2.508-0.05-3.719-0.233
			c-2.147-0.325-3.017-1.428-3.029-3.59c-0.004-0.675-0.008-1.351,0.002-2.025c1.572-0.354,2.711-1.736,2.719-3.347
			c0.596-0.128,1.207-0.232,1.814-0.246c2.043-0.047,4.09-0.148,6.119,0.205c0.27,0.047,0.531,0.133,0.794,0.21
			c1.071,0.317,1.737,1.05,1.961,2.116c0.296,1.411,0.278,2.846,0.019,4.266c-1.1,0.234-1.934,1.137-2.172,2.234
			c-0.625,0.155-1.27,0.268-1.911,0.31C120.266,48.381,119.394,48.421,118.52,48.427z M118.543,41.877c0,0.003,0,0.005,0,0.005
			c-0.717,0.004-1.436-0.028-2.15,0.012c-0.767,0.044-1.047,0.369-1.058,1.124c-0.008,0.506,0.003,1.012-0.001,1.519
			c0.425,0.091,0.732,0.46,0.717,0.894c0.288,0.054,0.582,0.099,0.873,0.102c1.055,0.012,2.108,0.009,3.162,0.002
			c0.292-0.002,0.589-0.013,0.873-0.073c0-0.483,0.359-0.905,0.828-1.022c0.016-0.439,0.011-0.88,0.004-1.32
			c-0.014-0.894-0.314-1.208-1.225-1.236C119.893,41.86,119.217,41.877,118.543,41.877z M131.823,37.144
			c-0.002-0.787-0.08-0.86-0.881-0.865c-0.635-0.004-1.268-0.007-1.902,0.001c-0.681,0.009-0.777,0.1-0.783,0.769
			c-0.008,1.036-0.002,2.071-0.002,3.106c0,2.43-0.002,4.86,0,7.29c0.002,0.832,0.066,0.893,0.912,0.897
			c0.592,0.003,1.184,0.004,1.775,0c0.801-0.006,0.879-0.079,0.881-0.866c0.004-1.711,0.002-3.423,0.002-5.134
			C131.825,40.609,131.827,38.876,131.823,37.144z M151.559,45.226c0.001,0.787,0.021,1.573,0.037,2.348
			c0.413,0.017,0.746,0.35,0.748,0.763c0.66,0.017,1.32,0.011,1.98,0.005c0.743-0.007,0.824-0.088,0.826-0.854
			c0.006-1.415-0.006-2.83,0.005-4.245c0.009-1.205,0.288-1.475,1.509-1.493c0.487-0.008,0.976-0.005,1.464-0.006
			c-0.003-0.386,0.312-0.697,0.696-0.702c0.002-0.443-0.005-0.887,0.004-1.33c0.01-0.47-0.227-0.724-0.677-0.741
			c-1.417-0.056-2.827-0.01-4.202,0.396c-1.323,0.391-2.055,1.318-2.223,2.642C151.592,43.064,151.557,44.146,151.559,45.226z"/>
	</g>
	<polygon fill-rule="evenodd" clip-rule="evenodd" fill="#FFFFFF" points="156.208,4.233 174.667,4.233 174.667,36.436 
		174.667,36.436 	"/>
</g>
</svg>
